<svg width="30" height="30" viewBox="0 0 30 30" fill="none" xmlns="http://www.w3.org/2000/svg">
<path fill-rule="evenodd" clip-rule="evenodd" d="M16.25 3.75V23.75H23.75V11.25H18.75V8.75H26.25L26.25 23.75L27.5 23.75V26.25H16.25H3.75L3.74998 26.2499L2.5 26.25V23.75L3.74998 23.75L3.75 3.75H16.25ZM13.75 6.25H6.25V23.75H8.75V20H11.25V23.75H13.75V6.25ZM21.25 18.75V21.25H18.75V18.75H21.25ZM11.25 13.75V16.25H8.75V13.75H11.25ZM21.25 13.75V16.25H18.75V13.75H21.25ZM11.25 8.75V11.25H8.75V8.75H11.25Z" fill="white"/>
</svg>
