<svg width="50" height="50" viewBox="0 0 50 50" fill="none" xmlns="http://www.w3.org/2000/svg">
<path d="M18.5368 13.6274H19.5523C20.5552 13.6262 21.5167 13.2566 22.2258 12.5997C22.935 11.9428 23.334 11.0522 23.3353 10.1232V10.0845H21.1223V10.1232C21.1217 10.5087 20.956 10.8783 20.6618 11.1509C20.3675 11.4235 19.9685 11.5769 19.5523 11.5775H18.5368C18.1207 11.5769 17.7217 11.4235 17.4274 11.1509C17.1331 10.8783 16.9675 10.5087 16.9669 10.1232V6.504C16.9678 6.11869 17.1336 5.74943 17.4278 5.47707C17.7221 5.20472 18.1209 5.05146 18.5368 5.05086H19.5523C19.9685 5.05147 20.3675 5.20488 20.6618 5.47748C20.956 5.75008 21.1217 6.11963 21.1223 6.50514H23.3353C23.334 5.57615 22.935 4.68555 22.2258 4.02865C21.5167 3.37176 20.5552 3.00218 19.5523 3.00098H18.5368C17.5338 3.00188 16.5722 3.37136 15.863 4.02832C15.1538 4.68528 14.7549 5.57606 14.7539 6.50514V10.1243C14.7552 11.0532 15.1542 11.9437 15.8634 12.6004C16.5726 13.2571 17.5341 13.6265 18.5368 13.6274Z" fill="#949495"/>
<path d="M28.9328 13.6275C30.0703 13.6263 31.1609 13.2072 31.9653 12.4621C32.7697 11.717 33.2221 10.7068 33.2234 9.65302V6.9745C33.2234 6.45256 33.1125 5.93573 32.8968 5.45353C32.6812 4.97132 32.3652 4.53317 31.9667 4.16411C31.5683 3.79504 31.0953 3.50228 30.5747 3.30254C30.0542 3.1028 29.4962 3 28.9328 3C28.3693 3 27.8114 3.1028 27.2908 3.30254C26.7702 3.50228 26.2972 3.79504 25.8988 4.16411C25.5004 4.53317 25.1843 4.97132 24.9687 5.45353C24.7531 5.93573 24.6421 6.45256 24.6421 6.9745V9.65302C24.6431 10.7068 25.0954 11.7173 25.8999 12.4624C26.7043 13.2076 27.7951 13.6266 28.9328 13.6275ZM26.855 6.9745C26.855 6.46406 27.0739 5.97453 27.4636 5.61359C27.8532 5.25266 28.3817 5.04989 28.9328 5.04989C29.4838 5.04989 30.0123 5.25266 30.4019 5.61359C30.7916 5.97453 31.0105 6.46406 31.0105 6.9745V9.65302C31.0105 10.1635 30.7916 10.653 30.4019 11.0139C30.0123 11.3749 29.4838 11.5776 28.9328 11.5776C28.3817 11.5776 27.8532 11.3749 27.4636 11.0139C27.0739 10.653 26.855 10.1635 26.855 9.65302V6.9745Z" fill="#949495"/>
<path d="M23.5001 18.0548C25.4799 18.0606 27.4048 18.6168 28.9887 19.6409C30.5726 20.6649 31.731 22.1021 32.2918 23.7389C32.4974 24.3549 32.9318 24.8957 33.5283 25.2783C34.1249 25.6608 34.8506 25.8641 35.594 25.8568H35.6125C36.5435 25.857 37.465 26.0169 38.3235 26.3273C39.182 26.6377 39.9603 27.0923 40.6129 27.6646C41.2654 28.2369 41.7793 28.9155 42.1246 29.6608C42.4698 30.4061 42.6395 31.2031 42.6237 32.0055C42.6048 32.8475 42.3764 33.6761 41.954 34.4354C42.7282 34.6033 43.468 34.8721 44.148 35.2325C44.6866 34.2326 44.9764 33.1465 44.9987 32.0442C45.0197 30.9698 44.7924 29.9026 44.33 28.9047C43.8677 27.9068 43.1795 26.9982 42.3056 26.2319C41.4317 25.4657 40.3896 24.857 39.24 24.4415C38.0904 24.026 36.8564 23.8119 35.6099 23.8118H35.5861C35.358 23.8146 35.1351 23.7526 34.952 23.6352C34.7689 23.5179 34.6357 23.3519 34.573 23.1628C33.8748 21.0965 32.4178 19.2813 30.4208 17.9898C28.4238 16.6982 25.9946 16 23.4981 16C21.0016 16 18.5724 16.6982 16.5754 17.9898C14.5785 19.2813 13.1215 21.0965 12.4232 23.1628C12.3584 23.3503 12.2241 23.5143 12.0409 23.6299C11.8578 23.7454 11.6357 23.8061 11.4088 23.8027H11.3877C10.1405 23.8031 8.90583 24.0177 7.75586 24.4339C6.6059 24.8501 5.56362 25.4596 4.68986 26.2268C3.8161 26.994 3.12836 27.9036 2.6668 28.9024C2.20523 29.9012 1.97907 30.9693 2.00152 32.0442C2.08606 36.4303 6.36041 40 11.5237 40H15.3067C15.4385 39.2852 15.7025 38.5932 16.0887 37.9504H11.5237C7.64694 37.9504 4.44118 35.2848 4.37778 32.0101C4.362 31.2077 4.53168 30.4106 4.87692 29.6653C5.22216 28.9201 5.73606 28.2415 6.38865 27.6692C7.04124 27.0968 7.81948 26.6423 8.67797 26.3319C9.53646 26.0215 10.458 25.8616 11.389 25.8614H11.4128C11.6461 25.861 11.8788 25.8408 12.1075 25.801C12.9486 26.5728 13.4224 27.5888 13.435 28.6477L16.1204 28.5816C16.0967 27.0769 15.4631 25.6267 14.3293 24.4825C14.493 24.2547 14.6201 24.0087 14.707 23.7515C15.2655 22.1122 16.423 20.6722 18.0074 19.6458C19.5917 18.6193 21.5182 18.0613 23.5001 18.0548Z" fill="#949495"/>
<path d="M40.5979 36.3365C40.0641 36.6739 39.6289 37.1122 39.3264 37.6172C39.0238 38.1221 38.862 38.6801 38.8537 39.2474L36.5003 39.1904C36.5127 38.4069 36.7169 37.6342 37.0997 36.9222C37.4825 36.2101 38.0354 35.5744 38.723 35.056C38.2182 33.8411 37.2758 32.7942 36.0311 32.0659C34.7864 31.3376 33.3036 30.9653 31.7958 31.0025C30.2879 31.0398 28.8327 31.4847 27.6393 32.2732C26.446 33.0618 25.5758 34.1534 25.1541 35.3912C25.0597 35.6652 24.8634 35.9056 24.5949 36.0757C24.3265 36.2459 24.0004 36.3367 23.6662 36.3343H23.6531C22.9023 36.3342 22.159 36.4619 21.4666 36.7101C20.7742 36.9582 20.1466 37.3217 19.6204 37.7794C19.0942 38.2372 18.68 38.7799 18.4019 39.3759C18.1238 39.972 17.9875 40.6094 18.0009 41.251C18.0519 43.9004 20.6459 46 23.7459 46H40.2527C43.3527 46 45.9468 43.9004 45.999 41.251C46.0261 39.9917 45.4765 38.7732 44.4676 37.8552C43.4587 36.9372 42.0701 36.3923 40.5979 36.3365Z" fill="#949495"/>
</svg>
