<svg width="50" height="50" viewBox="0 0 50 50" fill="none" xmlns="http://www.w3.org/2000/svg">
<path d="M31.2639 6.7835C35.1008 5.95286 39.8608 5.99438 46.3383 7.60975C47.4545 7.88811 48.1331 9.01648 47.8541 10.13C47.5752 11.2436 46.4441 11.9206 45.3279 11.6423C39.3056 10.1405 35.2116 10.1822 32.1477 10.8456C29.0741 11.5109 26.8647 12.8306 24.5241 14.2576L24.3489 14.3645C22.0927 15.7409 19.5942 17.2652 16.2933 17.8139C12.8696 18.3831 8.8252 17.8799 3.39356 15.7122C2.32531 15.2859 1.80573 14.0764 2.23308 13.0107C2.66041 11.945 3.87285 11.4267 4.9411 11.853C9.92589 13.8423 13.173 14.1187 15.6085 13.7139C18.0812 13.3028 19.9663 12.1649 22.3514 10.7108C24.6981 9.28011 27.4364 7.61209 31.2639 6.7835Z" fill="#949495"/>
<path d="M46.3383 15.9232C39.8608 14.3079 35.1008 14.2663 31.2639 15.097C27.4364 15.9256 24.6981 17.5936 22.3514 19.0243C19.9663 20.4784 18.0812 21.6163 15.6085 22.0273C13.173 22.4321 9.92589 22.1557 4.9411 20.1664C3.87285 19.7401 2.66041 20.2584 2.23308 21.3242C1.80573 22.3898 2.32531 23.5994 3.39356 24.0257C8.8252 26.1934 12.8696 26.6965 16.2933 26.1273C19.5942 25.5786 22.0927 24.0544 24.3489 22.678L24.5241 22.5711C26.8647 21.144 29.0741 19.8244 32.1477 19.159C35.2116 18.4957 39.3056 18.4539 45.3279 19.9557C46.4441 20.2341 47.5752 19.557 47.8541 18.4435C48.1331 17.3299 47.4545 16.2016 46.3383 15.9232Z" fill="#949495"/>
<path fill-rule="evenodd" clip-rule="evenodd" d="M39.5831 20.8887C38.8598 20.8887 38.2571 21.2622 37.8365 21.8274C37.6888 22.027 37.3473 22.4941 36.8938 23.1478C36.2904 24.0172 35.4829 25.2253 34.6719 26.5739C33.8648 27.9158 33.0321 29.4333 32.395 30.916C31.785 32.336 31.2479 33.8778 31.25 35.441C31.2515 35.8797 31.304 36.3205 31.376 36.7524C31.4965 37.4733 31.741 38.4658 32.251 39.4835C32.7652 40.5095 33.5692 41.5987 34.8142 42.4266C36.0723 43.2633 37.656 43.7499 39.5831 43.7499C41.5102 43.7499 43.094 43.2633 44.3519 42.4266C45.5969 41.5987 46.401 40.5095 46.9152 39.4837C47.4252 38.4658 47.67 37.4733 47.7904 36.7526C47.8627 36.3201 47.9158 35.878 47.9165 35.4389C47.9171 33.8758 47.3815 32.3362 46.7713 30.916C46.1344 29.4333 45.3017 27.9158 44.4946 26.5739C43.6835 25.2253 42.8758 24.0172 42.2725 23.1478C41.819 22.4941 41.4773 22.027 41.3298 21.8274C40.9092 21.2622 40.3063 20.8887 39.5831 20.8887ZM42.9417 32.5535C42.4069 31.3085 41.6771 29.9683 40.9217 28.7124C40.4623 27.9487 40.0017 27.2295 39.5831 26.5987C39.1646 27.2295 38.704 27.9487 38.2446 28.7124C37.4894 29.9683 36.7596 31.3085 36.2248 32.5535L36.1944 32.6239C35.8263 33.4799 35.3913 34.492 35.4171 35.4376C35.4421 36.1855 35.6435 36.9576 35.9779 37.6247C36.2448 38.1576 36.6127 38.6272 37.1254 38.9683C37.6252 39.3005 38.3852 39.5933 39.5831 39.5933C40.781 39.5933 41.541 39.3005 42.0408 38.9683C42.5535 38.6272 42.9215 38.1574 43.1885 37.6247C43.5229 36.9576 43.7244 36.1855 43.7494 35.4374C43.7754 34.4922 43.3402 33.4801 42.9721 32.6243L42.9417 32.5535Z" fill="#949495"/>
<path d="M29.4368 24.0223C31.0208 23.5096 32.2351 25.1581 31.4903 26.644C31.1501 27.3229 30.7674 27.9006 30.0066 28.1694C27.971 28.8885 26.2847 29.9012 24.5241 30.9746L24.3489 31.0815C22.0926 32.4579 19.5942 33.9821 16.2933 34.5308C12.8696 35.1 8.82522 34.5969 3.39355 32.4292C2.3253 32.0029 1.80574 30.7933 2.23307 29.7277C2.66043 28.6619 3.87285 28.1435 4.94112 28.57C9.92589 30.5592 13.173 30.8356 15.6085 30.4308C18.0812 30.0198 19.9663 28.8819 22.3514 27.4277C24.6181 26.0458 26.9508 24.8271 29.4368 24.0223Z" fill="#949495"/>
</svg>
