<svg width="50" height="50" viewBox="0 0 50 50" fill="none" xmlns="http://www.w3.org/2000/svg">
<path d="M37.3045 35.0933H11.9627C11.7755 35.1065 11.5875 35.0811 11.4106 35.0186C11.2336 34.956 11.0714 34.8578 10.9341 34.7298C10.7968 34.6019 10.6873 34.447 10.6124 34.2749C10.5375 34.1028 10.4989 33.9172 10.4989 33.7295C10.4989 33.5418 10.5375 33.3561 10.6124 33.184C10.6873 33.0119 10.7968 32.8571 10.9341 32.7292C11.0714 32.6012 11.2336 32.5029 11.4106 32.4404C11.5875 32.3779 11.7755 32.3525 11.9627 32.3657H15.0476V30.7056H11.9627C11.5535 30.6861 11.1446 30.7499 10.7607 30.8931C10.3769 31.0363 10.0261 31.2559 9.72966 31.5386C9.43318 31.8213 9.19717 32.1612 9.03591 32.5378C8.87465 32.9144 8.7915 33.3198 8.7915 33.7295C8.7915 34.1392 8.87465 34.5446 9.03591 34.9212C9.19717 35.2977 9.43318 35.6377 9.72966 35.9204C10.0261 36.2031 10.3769 36.4227 10.7607 36.5659C11.1446 36.7091 11.5535 36.7729 11.9627 36.7534H37.3045C37.4836 36.7437 37.6629 36.7705 37.8313 36.8324C37.9998 36.8942 38.1538 36.9898 38.2841 37.1131C38.4144 37.2365 38.5182 37.3852 38.5891 37.55C38.66 37.7148 38.6966 37.8923 38.6966 38.0718C38.6966 38.2512 38.66 38.4288 38.5891 38.5936C38.5182 38.7584 38.4144 38.907 38.2841 39.0304C38.1538 39.1538 37.9998 39.2493 37.8313 39.3112C37.6629 39.373 37.4836 39.3999 37.3045 39.3901H34.2586V41.0503H37.3045C37.7047 41.0648 38.1037 40.9985 38.4777 40.8553C38.8518 40.7122 39.1931 40.4951 39.4814 40.2171C39.7696 39.9391 39.9989 39.6058 40.1555 39.2372C40.3121 38.8686 40.3928 38.4723 40.3928 38.0718C40.3928 37.6713 40.3121 37.2749 40.1555 36.9063C39.9989 36.5377 39.7696 36.2045 39.4814 35.9265C39.1931 35.6485 38.8518 35.4314 38.4777 35.2882C38.1037 35.1451 37.7047 35.0788 37.3045 35.0933Z" fill="#949495"/>
<path d="M31.6113 39.3936H25.9629V41.0537H31.6113V39.3936Z" fill="#949495"/>
<path d="M15.9267 26.7575H18.7216C18.8193 26.1442 19.0151 25.5507 19.3017 24.9997H15.9267C13.0604 24.9997 10.6903 22.7146 10.6435 19.905C10.6314 19.2168 10.7565 18.5331 11.0116 17.8938C11.2666 17.2545 11.6465 16.6724 12.1289 16.1815C12.6114 15.6906 13.1868 15.3007 13.8216 15.0346C14.4563 14.7685 15.1378 14.6315 15.8261 14.6316V13.7527L15.8358 14.6316H15.8427C16.0149 14.6309 16.1866 14.6133 16.3554 14.5788C16.9768 15.2409 17.3271 16.1122 17.3368 17.0202L19.3231 16.9646C19.3051 15.674 18.8363 14.4303 17.9979 13.4489C18.1197 13.2541 18.214 13.0435 18.2782 12.823C18.6882 11.4164 19.5434 10.1807 20.7155 9.30156C21.8875 8.42239 23.3131 7.94713 24.7782 7.94713C26.2433 7.94713 27.6689 8.42239 28.841 9.30156C30.013 10.1807 30.8682 11.4164 31.2782 12.823C31.4299 13.3499 31.7498 13.8128 32.1893 14.1408C32.6287 14.4688 33.1635 14.6439 33.7118 14.6394H33.7323C34.4206 14.6393 35.102 14.7763 35.7368 15.0424C36.3716 15.3085 36.947 15.6984 37.4295 16.1893C37.9119 16.6802 38.2918 17.2623 38.5468 17.9016C38.8019 18.5409 38.927 19.2246 38.9149 19.9128C38.9042 20.6361 38.7377 21.3486 38.4267 22.0017C38.999 22.1427 39.5464 22.3706 40.0497 22.6775C40.4472 21.8197 40.6607 20.8883 40.6767 19.9431C40.6923 19.0217 40.5244 18.1064 40.1827 17.2506C39.8409 16.3949 39.3322 15.6157 38.6862 14.9585C38.0401 14.3014 37.2697 13.7795 36.4199 13.4232C35.57 13.067 34.6577 12.8835 33.7362 12.8835H33.7177C33.5502 12.8861 33.3865 12.8337 33.2516 12.7344C33.1166 12.6351 33.018 12.4944 32.9706 12.3337C32.4541 10.5618 31.3767 9.00517 29.9002 7.89764C28.4237 6.79011 26.6278 6.19141 24.7821 6.19141C22.9364 6.19141 21.1405 6.79011 19.664 7.89764C18.1876 9.00517 17.1102 10.5618 16.5937 12.3337C16.5459 12.4951 16.4465 12.6364 16.3106 12.7357C16.1747 12.8351 16.01 12.887 15.8417 12.8835H15.828C14.9071 12.8834 13.9954 13.0665 13.1459 13.4222C12.2965 13.778 11.5263 14.2992 10.8803 14.9555C10.2342 15.6118 9.72527 16.3901 9.38299 17.245C9.04071 18.1 8.87198 19.0145 8.88662 19.9353C8.94814 23.698 12.1093 26.7575 15.9267 26.7575Z" fill="#949495"/>
<path d="M35.7839 22.3679C35.4069 21.3062 34.7029 20.3913 33.7733 19.7548C32.8436 19.1183 31.7361 18.7929 30.6098 18.8255C29.4836 18.858 28.3967 19.2468 27.5054 19.936C26.614 20.6251 25.9641 21.5791 25.6491 22.6609C25.5787 22.9004 25.4321 23.1104 25.2315 23.259C25.031 23.4075 24.7874 23.4866 24.5378 23.4841H24.528C23.9672 23.4842 23.4121 23.5959 22.895 23.8128C22.3779 24.0297 21.9092 24.3474 21.5162 24.7474C21.1232 25.1474 20.8138 25.6216 20.6061 26.1425C20.3984 26.6633 20.2965 27.2203 20.3063 27.781C20.3454 30.0955 22.2819 31.9304 24.5973 31.9304H36.9303C39.2458 31.9304 41.1823 30.0955 41.2214 27.781C41.24 26.6816 40.829 25.6182 40.0758 24.817C39.3227 24.0159 38.2867 23.5401 37.1882 23.491C36.7894 23.7857 36.4642 24.1687 36.238 24.6101C36.0118 25.0514 35.8908 25.5391 35.8844 26.0349L34.1266 25.9851C34.1348 25.2999 34.2865 24.6239 34.5719 24.0009C34.8574 23.3779 35.2702 22.8216 35.7839 22.3679Z" fill="#949495"/>
</svg>
