<svg width="50" height="50" viewBox="0 0 50 50" fill="none" xmlns="http://www.w3.org/2000/svg">
<g clip-path="url(#clip0_974_20)">
<path d="M25.1217 9.46484C14.7938 9.46484 6.3916 17.8672 6.3916 28.195C6.3916 38.5227 14.7938 46.9251 25.1217 46.9251C35.4496 46.9251 43.8519 38.5227 43.8519 28.195C43.8519 17.8672 35.4496 9.46484 25.1217 9.46484ZM37.4124 18.362H30.7686C29.9103 16.19 28.7659 14.236 27.3773 12.6098C31.4192 13.192 34.9694 15.3147 37.4124 18.362ZM20.6928 26.7036C20.8058 24.8569 21.1299 23.0467 21.6361 21.3447H28.6473C29.1371 23.0303 29.4468 24.8353 29.5535 26.7036H20.6928ZM29.5487 29.6863C29.4352 31.5368 29.1154 33.3466 28.617 35.0452H21.608C21.1148 33.361 20.802 31.556 20.6921 29.6863H29.5487ZM25.1347 14.5714C26.0689 15.6675 26.8734 16.9473 27.5329 18.362H22.7638C23.4221 16.9521 24.2188 15.6693 25.1347 14.5714ZM22.8894 12.6064C21.5037 14.2471 20.36 16.2017 19.4995 18.362H12.8311C15.2787 15.3089 18.8379 13.1839 22.8894 12.6064ZM10.9439 21.3447H18.526C18.0816 23.0603 17.8025 24.8612 17.7053 26.7036H9.44521C9.625 24.7992 10.1447 22.9923 10.9439 21.3447ZM10.9439 35.0452C10.1447 33.3978 9.625 31.5908 9.44521 29.6863H17.7068C17.805 31.5351 18.0816 33.3355 18.5215 35.0452H10.9439ZM12.8311 38.0279H19.4912C20.3567 40.2048 21.5102 42.1608 22.9096 43.7863C18.8498 43.213 15.2828 41.0862 12.8311 38.0279ZM22.7301 38.0279H27.5039C26.8507 39.4435 26.0598 40.7277 25.1502 41.8227C24.2075 40.7274 23.3958 39.4462 22.7301 38.0279ZM27.405 43.7764C28.777 42.1435 29.9095 40.1912 30.7613 38.0279H37.4121C34.9749 41.0683 31.4354 43.1883 27.405 43.7764ZM39.2995 35.0452H31.7236C32.162 33.332 32.4383 31.5315 32.5364 29.6863H40.7981C40.6183 31.5908 40.0987 33.3978 39.2995 35.0452ZM40.7981 26.7036H32.5389C32.4434 24.856 32.1695 23.0553 31.7324 21.3447H39.2995C40.0987 22.9923 40.6183 24.7992 40.7981 26.7036Z" fill="#949495"/>
<path d="M25.1998 3.07621C25.1739 3.07488 25.1477 3.07422 25.1214 3.07422H24.8786C24.8524 3.07422 24.8263 3.07488 24.8002 3.07621C11.0961 3.24904 0 14.4509 0 28.1954C0 29.0192 0.667625 29.6868 1.49135 29.6868C2.31506 29.6868 2.98269 29.0192 2.98269 28.1954C2.98269 16.0284 12.8479 6.12236 25.0001 6.05724C37.1521 6.12236 47.0173 16.0285 47.0173 28.1956C47.0173 29.0193 47.6849 29.6869 48.5087 29.6869C49.3324 29.6869 50 29.0193 50 28.1956C50 14.4509 38.9041 3.24904 25.1998 3.07621Z" fill="#949495"/>
</g>
<defs>
<clipPath id="clip0_974_20">
<rect width="50" height="50" fill="white"/>
</clipPath>
</defs>
</svg>
