<svg width="44" height="34" viewBox="0 0 44 34" fill="none" xmlns="http://www.w3.org/2000/svg">
<path d="M37.4645 12.833H22.3102C18.6298 12.833 15.8154 10.1247 15.8154 6.58301C15.8154 3.04134 18.6298 0.333008 22.3102 0.333008C24.2586 0.333008 25.9905 1.16634 27.073 2.41634C27.9389 3.24967 27.7224 4.49967 26.8565 5.33301C25.9905 6.16634 24.6916 5.95801 23.8256 5.12467C23.6091 4.70801 22.9596 4.49967 22.3102 4.49967C21.0112 4.49967 20.1452 5.33301 20.1452 6.58301C20.1452 7.83301 21.0112 8.66634 22.3102 8.66634H37.4645C38.7635 8.66634 39.6294 9.49967 39.6294 10.7497C39.6294 11.9997 38.7635 12.833 37.4645 12.833Z" fill="white"/>
<path d="M15.8155 27.416C12.1352 27.416 9.3208 24.7077 9.3208 21.166C9.3208 17.6243 12.1352 14.916 15.8155 14.916H41.7944C43.0934 14.916 43.9594 15.7493 43.9594 16.9993C43.9594 18.2493 43.0934 19.0827 41.7944 19.0827H15.8155C14.5166 19.0827 13.6506 19.916 13.6506 21.166C13.6506 22.416 14.5166 23.2493 15.8155 23.2493C16.465 23.2493 17.1145 23.041 17.331 22.6243C18.1969 21.791 19.4959 21.791 20.3618 22.416C21.2278 23.2493 21.2278 24.4993 20.5783 25.3327C19.4959 26.5827 17.7639 27.416 15.8155 27.416Z" fill="white"/>
<path d="M30.9698 33.666C27.2895 33.666 24.4751 30.9577 24.4751 27.416C24.4751 23.8743 27.2895 21.166 30.9698 21.166H39.6295C40.9284 21.166 41.7944 21.9993 41.7944 23.2493C41.7944 24.4993 40.9284 25.3327 39.6295 25.3327H30.9698C29.6709 25.3327 28.8049 26.166 28.8049 27.416C28.8049 28.666 29.6709 29.4993 30.9698 29.4993C31.6193 29.4993 32.2688 29.291 32.7018 28.666C33.3512 27.8327 34.8667 27.6243 35.7326 28.2493C36.5986 28.8743 36.8151 30.3327 36.1656 31.166C34.8667 32.8327 32.9182 33.666 30.9698 33.666Z" fill="white"/>
<path d="M6.07318 10.7493C6.671 10.7493 7.15563 10.283 7.15563 9.70768C7.15563 9.13239 6.671 8.66602 6.07318 8.66602C5.47535 8.66602 4.99072 9.13239 4.99072 9.70768C4.99072 10.283 5.47535 10.7493 6.07318 10.7493Z" fill="white"/>
<path d="M10.4033 4.49935C11.0011 4.49935 11.4857 4.03298 11.4857 3.45768C11.4857 2.88239 11.0011 2.41602 10.4033 2.41602C9.80543 2.41602 9.3208 2.88239 9.3208 3.45768C9.3208 4.03298 9.80543 4.49935 10.4033 4.49935Z" fill="white"/>
<path d="M1.74359 6.58333C2.34141 6.58333 2.82604 6.11696 2.82604 5.54167C2.82604 4.96637 2.34141 4.5 1.74359 4.5C1.14576 4.5 0.661133 4.96637 0.661133 5.54167C0.661133 6.11696 1.14576 6.58333 1.74359 6.58333Z" fill="white"/>
<path d="M6.07318 25.3333C6.671 25.3333 7.15563 24.867 7.15563 24.2917C7.15563 23.7164 6.671 23.25 6.07318 23.25C5.47535 23.25 4.99072 23.7164 4.99072 24.2917C4.99072 24.867 5.47535 25.3333 6.07318 25.3333Z" fill="white"/>
<path d="M1.74359 29.4993C2.34141 29.4993 2.82604 29.033 2.82604 28.4577C2.82604 27.8824 2.34141 27.416 1.74359 27.416C1.14576 27.416 0.661133 27.8824 0.661133 28.4577C0.661133 29.033 1.14576 29.4993 1.74359 29.4993Z" fill="white"/>
<path d="M10.4033 31.5833C11.0011 31.5833 11.4857 31.117 11.4857 30.5417C11.4857 29.9664 11.0011 29.5 10.4033 29.5C9.80543 29.5 9.3208 29.9664 9.3208 30.5417C9.3208 31.117 9.80543 31.5833 10.4033 31.5833Z" fill="white"/>
<path d="M1.74359 21.1663C2.34141 21.1663 2.82604 20.7 2.82604 20.1247C2.82604 19.5494 2.34141 19.083 1.74359 19.083C1.14576 19.083 0.661133 19.5494 0.661133 20.1247C0.661133 20.7 1.14576 21.1663 1.74359 21.1663Z" fill="white"/>
<path d="M1.74359 14.9163C2.34141 14.9163 2.82604 14.45 2.82604 13.8747C2.82604 13.2994 2.34141 12.833 1.74359 12.833C1.14576 12.833 0.661133 13.2994 0.661133 13.8747C0.661133 14.45 1.14576 14.9163 1.74359 14.9163Z" fill="white"/>
</svg>
