<svg width="52" height="50" viewBox="0 0 52 50" fill="none" xmlns="http://www.w3.org/2000/svg">
<path d="M41.133 20.833H25.9786C22.2983 20.833 19.4839 18.1247 19.4839 14.583C19.4839 11.0413 22.2983 8.33301 25.9786 8.33301C27.927 8.33301 29.659 9.16634 30.7414 10.4163C31.6074 11.2497 31.3909 12.4997 30.5249 13.333C29.659 14.1663 28.36 13.958 27.4941 13.1247C27.2776 12.708 26.6281 12.4997 25.9786 12.4997C24.6797 12.4997 23.8137 13.333 23.8137 14.583C23.8137 15.833 24.6797 16.6663 25.9786 16.6663H41.133C42.4319 16.6663 43.2979 17.4997 43.2979 18.7497C43.2979 19.9997 42.4319 20.833 41.133 20.833Z" fill="#949495"/>
<path d="M19.484 35.416C15.8036 35.416 12.9893 32.7077 12.9893 29.166C12.9893 25.6243 15.8036 22.916 19.484 22.916H45.4629C46.7618 22.916 47.6278 23.7493 47.6278 24.9993C47.6278 26.2493 46.7618 27.0827 45.4629 27.0827H19.484C18.185 27.0827 17.3191 27.916 17.3191 29.166C17.3191 30.416 18.185 31.2493 19.484 31.2493C20.1335 31.2493 20.7829 31.041 20.9994 30.6243C21.8654 29.791 23.1643 29.791 24.0303 30.416C24.8963 31.2493 24.8963 32.4993 24.2468 33.3327C23.1643 34.5827 21.4324 35.416 19.484 35.416Z" fill="#949495"/>
<path d="M34.6383 41.666C30.9579 41.666 28.1436 38.9577 28.1436 35.416C28.1436 31.8743 30.9579 29.166 34.6383 29.166H43.2979C44.5969 29.166 45.4628 29.9993 45.4628 31.2493C45.4628 32.4993 44.5969 33.3327 43.2979 33.3327H34.6383C33.3393 33.3327 32.4734 34.166 32.4734 35.416C32.4734 36.666 33.3393 37.4993 34.6383 37.4993C35.2878 37.4993 35.9372 37.291 36.3702 36.666C37.0197 35.8327 38.5351 35.6243 39.4011 36.2493C40.2671 36.8743 40.4835 38.3327 39.8341 39.166C38.5351 40.8327 36.5867 41.666 34.6383 41.666Z" fill="#949495"/>
<path d="M9.74163 18.7493C10.3395 18.7493 10.8241 18.283 10.8241 17.7077C10.8241 17.1324 10.3395 16.666 9.74163 16.666C9.14381 16.666 8.65918 17.1324 8.65918 17.7077C8.65918 18.283 9.14381 18.7493 9.74163 18.7493Z" fill="#949495"/>
<path d="M14.0717 12.4993C14.6695 12.4993 15.1542 12.033 15.1542 11.4577C15.1542 10.8824 14.6695 10.416 14.0717 10.416C13.4739 10.416 12.9893 10.8824 12.9893 11.4577C12.9893 12.033 13.4739 12.4993 14.0717 12.4993Z" fill="#949495"/>
<path d="M5.41204 14.5833C6.00987 14.5833 6.4945 14.117 6.4945 13.5417C6.4945 12.9664 6.00987 12.5 5.41204 12.5C4.81422 12.5 4.32959 12.9664 4.32959 13.5417C4.32959 14.117 4.81422 14.5833 5.41204 14.5833Z" fill="#949495"/>
<path d="M9.74163 33.3333C10.3395 33.3333 10.8241 32.867 10.8241 32.2917C10.8241 31.7164 10.3395 31.25 9.74163 31.25C9.14381 31.25 8.65918 31.7164 8.65918 32.2917C8.65918 32.867 9.14381 33.3333 9.74163 33.3333Z" fill="#949495"/>
<path d="M5.41204 37.4993C6.00987 37.4993 6.4945 37.033 6.4945 36.4577C6.4945 35.8824 6.00987 35.416 5.41204 35.416C4.81422 35.416 4.32959 35.8824 4.32959 36.4577C4.32959 37.033 4.81422 37.4993 5.41204 37.4993Z" fill="#949495"/>
<path d="M14.0717 39.5833C14.6695 39.5833 15.1542 39.117 15.1542 38.5417C15.1542 37.9664 14.6695 37.5 14.0717 37.5C13.4739 37.5 12.9893 37.9664 12.9893 38.5417C12.9893 39.117 13.4739 39.5833 14.0717 39.5833Z" fill="#949495"/>
<path d="M5.41204 29.1663C6.00987 29.1663 6.4945 28.7 6.4945 28.1247C6.4945 27.5494 6.00987 27.083 5.41204 27.083C4.81422 27.083 4.32959 27.5494 4.32959 28.1247C4.32959 28.7 4.81422 29.1663 5.41204 29.1663Z" fill="#949495"/>
<path d="M5.41204 22.9163C6.00987 22.9163 6.4945 22.45 6.4945 21.8747C6.4945 21.2994 6.00987 20.833 5.41204 20.833C4.81422 20.833 4.32959 21.2994 4.32959 21.8747C4.32959 22.45 4.81422 22.9163 5.41204 22.9163Z" fill="#949495"/>
</svg>
