<svg width="50" height="50" viewBox="0 0 50 50" fill="none" xmlns="http://www.w3.org/2000/svg">
<path d="M35.9375 35.9375C35.9373 37.4041 35.4214 38.824 34.4801 39.9486C33.5388 41.0733 32.232 41.8312 30.7884 42.0897C29.3447 42.3481 27.8562 42.0908 26.5831 41.3626C25.31 40.6344 24.3336 39.4818 23.8245 38.1063C23.7533 37.9139 23.7207 37.7093 23.7285 37.5043C23.7364 37.2992 23.7846 37.0977 23.8703 36.9113C23.956 36.7249 24.0776 36.5572 24.2281 36.4177C24.3787 36.2783 24.5552 36.1699 24.7477 36.0987C24.9401 36.0275 25.1447 35.9949 25.3497 36.0027C25.5548 36.0106 25.7563 36.0587 25.9427 36.1444C26.1291 36.2302 26.2968 36.3518 26.4363 36.5023C26.5757 36.6529 26.6841 36.8294 26.7553 37.0218C26.9534 37.5575 27.2944 38.0287 27.7413 38.3842C28.1883 38.7397 28.7241 38.9659 29.2906 39.0383C29.8571 39.1108 30.4326 39.0266 30.9546 38.795C31.4766 38.5634 31.9252 38.1932 32.2516 37.7245C32.578 37.2559 32.7698 36.7068 32.8062 36.1369C32.8425 35.567 32.722 34.998 32.4577 34.4917C32.1934 33.9854 31.7955 33.5612 31.3071 33.2652C30.8187 32.9692 30.2586 32.8126 29.6875 32.8125H7.8125C7.3981 32.8125 7.00067 32.6479 6.70765 32.3549C6.41462 32.0618 6.25 31.6644 6.25 31.25C6.25 30.8356 6.41462 30.4382 6.70765 30.1451C7.00067 29.8521 7.3981 29.6875 7.8125 29.6875H29.6875C31.3445 29.6894 32.9331 30.3485 34.1048 31.5202C35.2765 32.6919 35.9356 34.2805 35.9375 35.9375ZM23.4375 20.3125C24.5794 20.3123 25.6994 19.9992 26.6759 19.4072C27.6524 18.8153 28.4481 17.9672 28.9766 16.9549C29.505 15.9426 29.7461 14.8049 29.6735 13.6653C29.6009 12.5257 29.2175 11.4278 28.565 10.4907C27.9124 9.55366 27.0155 8.81329 25.9718 8.35C24.9281 7.88671 23.7774 7.71822 22.6447 7.86281C21.512 8.0074 20.4406 8.45955 19.5467 9.17017C18.6529 9.88079 17.9708 10.8227 17.5745 11.8937C17.5033 12.0861 17.4707 12.2907 17.4785 12.4957C17.4864 12.7008 17.5346 12.9023 17.6203 13.0887C17.706 13.2751 17.8276 13.4428 17.9781 13.5823C18.1287 13.7217 18.3052 13.8301 18.4977 13.9013C18.6901 13.9725 18.8947 14.0052 19.0997 13.9973C19.3048 13.9894 19.5063 13.9413 19.6927 13.8556C19.8791 13.7698 20.0468 13.6482 20.1863 13.4977C20.3257 13.3471 20.4341 13.1706 20.5053 12.9782C20.7034 12.4425 21.0444 11.9713 21.4913 11.6158C21.9383 11.2603 22.4741 11.0341 23.0406 10.9617C23.6071 10.8892 24.1826 10.9734 24.7046 11.205C25.2266 11.4366 25.6752 11.8068 26.0016 12.2755C26.328 12.7441 26.5198 13.2932 26.5562 13.8631C26.5925 14.433 26.472 15.002 26.2077 15.5083C25.9434 16.0146 25.5455 16.4388 25.0571 16.7348C24.5687 17.0308 24.0086 17.1874 23.4375 17.1875H4.6875C4.2731 17.1875 3.87567 17.3521 3.58265 17.6451C3.28962 17.9382 3.125 18.3356 3.125 18.75C3.125 19.1644 3.28962 19.5618 3.58265 19.8549C3.87567 20.1479 4.2731 20.3125 4.6875 20.3125H23.4375ZM40.625 14.0625C39.3487 14.0659 38.1037 14.4583 37.0562 15.1875C36.0086 15.9167 35.2083 16.9479 34.762 18.1437C34.6908 18.3361 34.6582 18.5407 34.666 18.7457C34.6739 18.9508 34.7221 19.1523 34.8078 19.3387C34.8935 19.5251 35.0151 19.6928 35.1656 19.8323C35.3162 19.9717 35.4927 20.0801 35.6852 20.1513C35.8776 20.2225 36.0822 20.2552 36.2872 20.2473C36.4923 20.2394 36.6938 20.1913 36.8802 20.1056C37.0666 20.0198 37.2343 19.8982 37.3738 19.7477C37.5132 19.5971 37.6216 19.4206 37.6928 19.2282C37.8909 18.6925 38.2319 18.2213 38.6788 17.8658C39.1258 17.5103 39.6616 17.2841 40.2281 17.2117C40.7946 17.1392 41.3701 17.2234 41.8921 17.455C42.4141 17.6866 42.8627 18.0568 43.1891 18.5255C43.5155 18.9941 43.7073 19.5432 43.7437 20.1131C43.78 20.683 43.6595 21.252 43.3952 21.7583C43.1309 22.2646 42.733 22.6888 42.2446 22.9848C41.7562 23.2808 41.1961 23.4374 40.625 23.4375H6.25C5.8356 23.4375 5.43817 23.6021 5.14515 23.8951C4.85212 24.1882 4.6875 24.5856 4.6875 25C4.6875 25.4144 4.85212 25.8118 5.14515 26.1049C5.43817 26.3979 5.8356 26.5625 6.25 26.5625H40.625C42.2826 26.5625 43.8723 25.904 45.0444 24.7319C46.2165 23.5598 46.875 21.9701 46.875 20.3125C46.875 18.6549 46.2165 17.0652 45.0444 15.8931C43.8723 14.721 42.2826 14.0625 40.625 14.0625Z" fill="#949495"/>
</svg>
