<svg width="28" height="28" viewBox="0 0 28 28" fill="none" xmlns="http://www.w3.org/2000/svg">
<path d="M4.66684 26.833H11.6668M11.6668 26.833V19.833M11.6668 26.833L6.58017 21.4197C5.32567 20.1658 4.40924 18.6146 3.91641 16.9107C3.42357 15.2069 3.37038 13.406 3.7618 11.676C4.15323 9.94605 4.97651 8.34344 6.15482 7.01772C7.33314 5.69199 8.82809 4.68637 10.5002 4.09467M23.3335 1.16634H16.3335M16.3335 1.16634V8.16634M16.3335 1.16634L21.4202 6.57967C22.6747 7.83354 23.5911 9.38478 24.0839 11.0886C24.5768 12.7925 24.63 14.5934 24.2385 16.3233C23.8471 18.0533 23.0238 19.6559 21.8455 20.9816C20.6672 22.3074 19.1723 23.313 17.5002 23.9047" stroke="#F2F2F2" stroke-width="2" stroke-linecap="round" stroke-linejoin="round"/>
</svg>
