<svg width="50" height="50" viewBox="0 0 50 50" fill="none" xmlns="http://www.w3.org/2000/svg">
<path d="M24.9998 45.8337C31.3282 45.8337 36.4582 40.7037 36.4582 34.3753C36.4582 30.7578 34.7819 27.532 32.1636 25.432C31.6142 24.9914 31.2498 24.3455 31.2498 23.6414V10.417C31.2498 6.96522 28.4517 4.16699 24.9998 4.16699C21.548 4.16699 18.7498 6.96522 18.7498 10.417V23.6414C18.7498 24.3455 18.3854 24.9914 17.8361 25.432C15.2179 27.532 13.5415 30.7578 13.5415 34.3753C13.5415 40.7037 18.6716 45.8337 24.9998 45.8337Z" stroke="#949495" stroke-width="4"/>
<path d="M30.2082 34.3753C30.2082 37.2518 27.8763 39.5837 24.9998 39.5837C22.1234 39.5837 19.7915 37.2518 19.7915 34.3753C19.7915 31.4989 22.1234 29.167 24.9998 29.167C27.8763 29.167 30.2082 31.4989 30.2082 34.3753Z" stroke="#949495" stroke-width="4"/>
<path d="M25 29.167V10.417" stroke="#949495" stroke-width="4" stroke-linecap="round"/>
</svg>
