<svg id="Group_28961" data-name="Group 28961" xmlns="http://www.w3.org/2000/svg" xmlns:xlink="http://www.w3.org/1999/xlink" width="72" height="72" viewBox="0 0 72 72">
  <defs>
    <clipPath id="clip-path">
      <rect id="Rectangle_76157" data-name="Rectangle 76157" width="72" height="72" fill="#f5efe1"/>
    </clipPath>
    <clipPath id="clip-path-2">
      <rect id="Rectangle_76459" data-name="Rectangle 76459" width="49.949" height="67.288" fill="#f5efe1"/>
    </clipPath>
  </defs>
  <g id="Group_28782" data-name="Group 28782" clip-path="url(#clip-path)">
    <g id="Group_29050" data-name="Group 29050" transform="translate(13.277 2.017)">
      <g id="Group_29050-2" data-name="Group 29050" clip-path="url(#clip-path-2)">
        <path id="Path_20990" data-name="Path 20990" d="M22.27,41.36a8.814,8.814,0,0,0-3.32-.858,8.921,8.921,0,0,0-6.558,2.089,13.9,13.9,0,0,1-8.71,3.586l0-2.364a11.691,11.691,0,0,0,7.11-2.959A11.324,11.324,0,0,1,19.1,38.143a11.509,11.509,0,0,1,3.166.65V23.1c-2.328-1.206-5.606-1.542-9.712,1.445C9.323,26.9,3.734,27.34,3.5,27.358l-.089-1.179L3.32,25h0c.084-.007,5.168-.42,7.847-2.368,3.729-2.713,7.63-3.419,11.1-2.11V4.26L.2,0,0,67.288l22.27-4.565Z" fill="#f5efe1"/>
        <path id="Path_20991" data-name="Path 20991" d="M131.125,55.843l.369-30.639-16.884-3.26V39c.218.152.434.311.647.481,4.745,3.8,5.871,3.786,6.852,3.377l.909,2.183a4.389,4.389,0,0,1-1.715.363c-1.671,0-3.595-1.019-6.693-3.423V57.249a9.216,9.216,0,0,1,1.7,1.542A9.378,9.378,0,0,0,120.956,61a5.43,5.43,0,0,0,1.919-.036l-.038-6.465,12.726,7.636-12.635,7.727-.039-6.5a7.731,7.731,0,0,1-1.028.067,11.092,11.092,0,0,1-7.147-2.886l-.081-.068-.022-.027V79.467l16.271-3.335.091-7.524,8.954-6.5Z" transform="translate(-89.976 -17.228)" fill="#f5efe1"/>
      </g>
    </g>
  </g>
</svg>
