<svg id="Group_29038" data-name="Group 29038" xmlns="http://www.w3.org/2000/svg" xmlns:xlink="http://www.w3.org/1999/xlink" width="72" height="72" viewBox="0 0 72 72">
  <defs>
    <clipPath id="clip-path">
      <rect id="Rectangle_76157" data-name="Rectangle 76157" width="72" height="72" fill="#f5efe1"/>
    </clipPath>
    <clipPath id="clip-path-2">
      <rect id="Rectangle_76467" data-name="Rectangle 76467" width="66.665" height="59.273" fill="#f5efe1"/>
    </clipPath>
  </defs>
  <g id="Group_28782" data-name="Group 28782" clip-path="url(#clip-path)">
    <g id="Group_29057" data-name="Group 29057" transform="translate(2.667 4.366)">
      <g id="Group_29057-2" data-name="Group 29057" clip-path="url(#clip-path-2)">
        <path id="Path_21007" data-name="Path 21007" d="M0,53.334c.021.152.042.3.069.492.037-.059.078-.094.08-.13A7.553,7.553,0,0,1,1.39,50.5q4.14-7.175,8.272-14.356Q12.937,30.47,16.221,24.8,21,16.53,25.767,8.263C26.782,6.506,27.78,4.739,28.822,3A6.478,6.478,0,0,1,31.482.465a3.958,3.958,0,0,1,3.86.079,6.749,6.749,0,0,1,2.616,2.62c1.167,1.98,2.307,3.974,3.456,5.964Q44.841,15.063,48.266,21q3.926,6.8,7.852,13.607,3.282,5.689,6.56,11.38c1.026,1.78,2.061,3.556,3.07,5.346a6.573,6.573,0,0,1,.917,3.322,4.146,4.146,0,0,1-2.543,3.937,7.131,7.131,0,0,1-3.124.68q-17.3,0-34.607,0-10.247,0-20.494,0A7.906,7.906,0,0,1,2.773,58.7a4.386,4.386,0,0,1-2.35-2.143,2.815,2.815,0,0,1-.263-1.267l-.161.5V53.334m38.161-40.8a10.425,10.425,0,0,0-.18-1.03,4.842,4.842,0,0,0-5.76-3.43,4.764,4.764,0,0,0-3.631,5.09c.293,2.025.572,4.052.86,6.078q.427,3,.858,6,.432,3.026.86,6.052c.207,1.477.4,2.955.6,4.433a1.69,1.69,0,0,0,.507,1.03,1.414,1.414,0,0,0,1.228.5,1.679,1.679,0,0,0,1.385-1.466c.175-1.28.34-2.561.518-3.84q.479-3.439.97-6.877.379-2.665.764-5.329c.236-1.639.476-3.278.71-4.917.109-.764.2-1.529.306-2.294m-4.827,40.3a4.763,4.763,0,0,0,4.8-4.806,4.8,4.8,0,1,0-4.8,4.806" transform="translate(0 0)" fill="#f5efe1"/>
      </g>
    </g>
  </g>
</svg>
