<svg id="Group_28959" data-name="Group 28959" xmlns="http://www.w3.org/2000/svg" xmlns:xlink="http://www.w3.org/1999/xlink" width="72" height="72" viewBox="0 0 72 72">
  <defs>
    <clipPath id="clip-path">
      <rect id="Rectangle_76157" data-name="Rectangle 76157" width="72" height="72" fill="#f5efe1"/>
    </clipPath>
    <clipPath id="clip-path-2">
      <rect id="Rectangle_76416" data-name="Rectangle 76416" width="64.372" height="64.174" fill="#f5efe1"/>
    </clipPath>
  </defs>
  <g id="Group_28782" data-name="Group 28782" clip-path="url(#clip-path)">
    <g id="Group_28878" data-name="Group 28878" transform="translate(2.548 3.914)">
      <g id="Group_28878-2" data-name="Group 28878" clip-path="url(#clip-path-2)">
        <path id="Path_20981" data-name="Path 20981" d="M150.33,110.457a5.171,5.171,0,0,0-5.2,4.5,11.93,11.93,0,0,0-.162,1.517c-.014.218-.028.435-.047.652l-.032.61.116.011c.017.3.036.614.076.928.361,2.859,2.11,4.7,4.677,4.919q.35.03.683.03a4.773,4.773,0,0,0,5.042-3.809,13.762,13.762,0,0,0,.208-4.911,5,5,0,0,0-5.355-4.446" transform="translate(-113.166 -86.297)" fill="#f5efe1"/>
        <path id="Path_20982" data-name="Path 20982" d="M62.247,34.249a2.884,2.884,0,0,1,.137-3.036,14.7,14.7,0,0,0-8.06-21.086,4.994,4.994,0,0,1-2.363-1.869A18.271,18.271,0,0,0,39.578.227,17.638,17.638,0,0,0,25.633,3.914a2.991,2.991,0,0,1-3.29.581,14.742,14.742,0,0,0-4.966-.87A14.518,14.518,0,0,0,3.584,13.712,14.668,14.668,0,0,0,5.192,26.345l.129.213-.266.4a2.136,2.136,0,0,1-.173.244c-5.12,5.991-6.219,12.478-3.266,19.281C4.578,53.31,10,56.975,17.721,57.38a2.879,2.879,0,0,1,1.879.98c5.591,6.754,14.274,7.729,21.113,2.367a3.135,3.135,0,0,1,2.185-.615c7.519,1.112,13.488-1.219,17.758-6.94C65,47.344,65.54,40.977,62.247,34.249m-46.31,1.477a4.7,4.7,0,0,0,3.621,1.588,4.61,4.61,0,0,0,3.489-1.738c.13-.162.256-.328.382-.493.183-.241.356-.469.541-.686.285-.334.694-.622,1.577-.225.352.158.65.421.456,1.267a4.4,4.4,0,0,1-2.232,2.775,7.787,7.787,0,0,1-7.863.385A8.2,8.2,0,0,1,11.649,31.6c-.008-.164-.006-.334,0-.514,0-.086,0-.171,0-.257.12-4.063,1.5-6.56,4.34-7.856a7.9,7.9,0,0,1,8.618.891,5.75,5.75,0,0,1,1.436,2.311.791.791,0,0,1-.481,1,1.258,1.258,0,0,1-1.5-.167,3.853,3.853,0,0,1-.713-.872A4.1,4.1,0,0,0,20.216,24.2a4.9,4.9,0,0,0-4,1.392c-2.305,2.381-2.451,7.686-.279,10.136m29.531-4.135a15.741,15.741,0,0,1-.49,2.331c-1.222,3.816-4.737,5.909-8.95,5.334-4.328-.592-6.739-3.225-6.972-7.616-.155-2.925.37-4.976,1.7-6.653a8.3,8.3,0,0,1,6.514-2.83,9.977,9.977,0,0,1,3.262.547c3.1,1.074,4.961,3.92,5.114,7.813-.068.36-.125.722-.181,1.074m10.07,13.582a.651.651,0,0,1-.473.147l-.213,0c-2.015.032-4.1.064-6.137-.006A.763.763,0,0,1,48,44.9a.989.989,0,0,1,.222-1.026,10.073,10.073,0,0,1,1.638-1.462l.227-.176c.305-.237.627-.455.967-.685a11.581,11.581,0,0,0,1.677-1.293,2.859,2.859,0,0,0,.672-2.176c-.076-.748-1.139-1.213-1.613-1.311a1.785,1.785,0,0,0-.356-.037c-.554,0-1.2.283-1.677,1.361-.42.957-.791.889-1.233.7s-.568-.736-.312-1.389a2.564,2.564,0,0,1,.46-.756,4.187,4.187,0,0,1,3.014-1.124,4.324,4.324,0,0,1,3.12,1.039,2.549,2.549,0,0,1,.726,1.991,2.852,2.852,0,0,1-1.182,2.053c-.664.5-1.39.959-2.093,1.4-.33.209-.66.417-.986.631l-.349.229.23,1.1h1.481c.78,0,1.558,0,2.336,0h.023c.565,0,.666.177.687.593a.859.859,0,0,1-.136.61" transform="translate(0 0.001)" fill="#f5efe1"/>
      </g>
    </g>
  </g>
</svg>
