<svg id="Group_29019" data-name="Group 29019" xmlns="http://www.w3.org/2000/svg" xmlns:xlink="http://www.w3.org/1999/xlink" width="72" height="72" viewBox="0 0 72 72">
  <defs>
    <clipPath id="clip-path">
      <rect id="Rectangle_76157" data-name="Rectangle 76157" width="72" height="72" fill="#f5efe1"/>
    </clipPath>
    <clipPath id="clip-path-2">
      <rect id="Rectangle_76463" data-name="Rectangle 76463" width="58.739" height="58.739" fill="#f5efe1"/>
    </clipPath>
  </defs>
  <g id="Group_28782" data-name="Group 28782" clip-path="url(#clip-path)">
    <g id="Group_29053" data-name="Group 29053" transform="translate(6.631 6.631)">
      <g id="Group_29053-2" data-name="Group 29053" clip-path="url(#clip-path-2)">
        <path id="Path_20998" data-name="Path 20998" d="M48.5,0H10.243A10.244,10.244,0,0,0,0,10.243V48.5A10.244,10.244,0,0,0,10.243,58.739H48.5A10.243,10.243,0,0,0,58.739,48.5V10.243A10.243,10.243,0,0,0,48.5,0m-11.7,17.824,5.327-5.372a3.687,3.687,0,0,0-.388-.043c-.741,0-1.482.007-2.222,0a1.689,1.689,0,0,1,0-3.378q3.412-.015,6.825,0A1.658,1.658,0,0,1,48,10.719q.014,3.387,0,6.774a1.689,1.689,0,1,1-3.379,0c-.009-.844,0-1.688,0-2.658-1.141,1.135-2.19,2.176-3.236,3.22-.724.723-1.442,1.451-2.167,2.173a1.72,1.72,0,1,1-2.428-2.4m-.649,8.138a1.687,1.687,0,0,1-3.368.157,1.557,1.557,0,0,0-1.04-1.406A6.191,6.191,0,0,0,27,24.721a1.367,1.367,0,0,0-.987,1.26,1.3,1.3,0,0,0,1.016,1.228,13.626,13.626,0,0,0,2.635.433,8.7,8.7,0,0,1,3.67.859,4.792,4.792,0,0,1,2.8,4.074,4.711,4.711,0,0,1-3.237,4.608c-.583.23-1.2.381-1.828.577,0,.576.006,1.157,0,1.738a1.691,1.691,0,1,1-3.381-.02c-.006-.58,0-1.161,0-1.6a21.2,21.2,0,0,1-2.63-1.132,4.661,4.661,0,0,1-2.445-3.962,1.688,1.688,0,0,1,3.369-.2,1.576,1.576,0,0,0,1.055,1.4,6.152,6.152,0,0,0,4.686.006A1.391,1.391,0,0,0,32.727,32.8c.013-.566-.454-.932-.921-1.205a6.18,6.18,0,0,0-2.605-.568,14.9,14.9,0,0,1-3.1-.543,4.967,4.967,0,0,1-3.355-3.468A4.484,4.484,0,0,1,25.31,21.82a24.381,24.381,0,0,1,2.373-.873c0-.475,0-1.067,0-1.66a1.695,1.695,0,1,1,3.383.007c0,.579,0,1.159,0,1.594a21.753,21.753,0,0,1,2.776,1.2,4.477,4.477,0,0,1,2.3,3.871M47.88,37.822a19.637,19.637,0,0,1-15.11,11.63A20.312,20.312,0,0,1,25.1,9.568c1.443-.291,2.925-.393,4.389-.582l.016.122c.547,0,1.094-.015,1.641,0a1.647,1.647,0,0,1-.048,3.294,19.749,19.749,0,0,0-6.588.725c-6.574,2.163-10.661,6.627-11.847,13.446a16.9,16.9,0,0,0,33.251,6.091,18.263,18.263,0,0,0,.062-6.415,1.7,1.7,0,0,1,1.383-1.983,1.727,1.727,0,0,1,2.027,1.526A19.723,19.723,0,0,1,47.88,37.822" fill="#f5efe1"/>
      </g>
    </g>
  </g>
</svg>
