<svg id="Group_29016" data-name="Group 29016" xmlns="http://www.w3.org/2000/svg" xmlns:xlink="http://www.w3.org/1999/xlink" width="72" height="72" viewBox="0 0 72 72">
  <defs>
    <clipPath id="clip-path">
      <rect id="Rectangle_76157" data-name="Rectangle 76157" width="72" height="72" fill="#f5efe1"/>
    </clipPath>
    <clipPath id="clip-path-2">
      <rect id="Rectangle_76417" data-name="Rectangle 76417" width="65.025" height="65.025" fill="#f5efe1"/>
    </clipPath>
  </defs>
  <g id="Group_28782" data-name="Group 28782" clip-path="url(#clip-path)">
    <g id="Group_28905" data-name="Group 28905" transform="translate(3.487 3.487)">
      <g id="Group_28902" data-name="Group 28902" clip-path="url(#clip-path-2)">
        <path id="Path_20983" data-name="Path 20983" d="M32.513,0A32.513,32.513,0,1,0,65.025,32.512,32.513,32.513,0,0,0,32.513,0M42.621,42.163a8.521,8.521,0,0,1-3.184,3.024,12.1,12.1,0,0,1-3.84,1.334v4.6H30.065v-4.4a23.975,23.975,0,0,1-4.357-.837,14.206,14.206,0,0,1-4.437-2.089l2.03-5.651a14.566,14.566,0,0,0,4.138,1.97,16.374,16.374,0,0,0,4.855.737,6.281,6.281,0,0,0,3.482-.717,2.041,2.041,0,0,0,1.015-1.671,1.718,1.718,0,0,0-.7-1.393,6.439,6.439,0,0,0-2.487-.955l-4.5-1a10.3,10.3,0,0,1-5.532-2.805A7.308,7.308,0,0,1,21.788,27.2a7.938,7.938,0,0,1,1.174-4.278,9.1,9.1,0,0,1,3.3-3.1,11.734,11.734,0,0,1,3.8-1.326V13.909H35.6v4.416a16.979,16.979,0,0,1,3.462.837,10.573,10.573,0,0,1,3.622,2.07L40.691,26.6a9.637,9.637,0,0,0-3.3-1.791,13.518,13.518,0,0,0-4.218-.637,5.815,5.815,0,0,0-3.263.776,2.3,2.3,0,0,0-1.154,1.97,1.639,1.639,0,0,0,.676,1.333,6.455,6.455,0,0,0,2.468.935l4.457,1a10.617,10.617,0,0,1,5.591,2.765A6.953,6.953,0,0,1,43.755,37.9a8.047,8.047,0,0,1-1.134,4.258" fill="#f5efe1"/>
      </g>
    </g>
  </g>
</svg>
