<svg xmlns="http://www.w3.org/2000/svg" xmlns:xlink="http://www.w3.org/1999/xlink" width="72" height="72" viewBox="0 0 72 72">
  <defs>
    <clipPath id="clip-path">
      <rect id="Rectangle_76462" data-name="Rectangle 76462" width="55.152" height="64.962" fill="#f5efe1"/>
    </clipPath>
  </defs>
  <g id="Group_29021" data-name="Group 29021" transform="translate(-5868 -593)">
    <g id="Rectangle_75850" data-name="Rectangle 75850" transform="translate(5868 593)" fill="#f5efe1" stroke="#707070" stroke-width="1" opacity="0">
      <rect width="72" height="72" stroke="none"/>
      <rect x="0.5" y="0.5" width="71" height="71" fill="none"/>
    </g>
    <g id="Group_29052" data-name="Group 29052" transform="translate(5876.424 596.519)">
      <g id="Group_29052-2" data-name="Group 29052" clip-path="url(#clip-path)">
        <path id="Path_20995" data-name="Path 20995" d="M10.48,0H44.674c-.035.067-.068.137-.107.2L37.076,13.059c-.1.169-.194.339-.3.529.075.031.123.052.171.069a27.129,27.129,0,0,1,12.7,9.047A25.075,25.075,0,0,1,54.72,43.15a24.91,24.91,0,0,1-6.76,13.158,27.647,27.647,0,0,1-18.219,8.561,27.445,27.445,0,0,1-7.772-.468A27.386,27.386,0,0,1,8.686,57.755a25.534,25.534,0,0,1-8.62-17.6,23.627,23.627,0,0,1,.856-8.381C3.365,23.434,8.75,17.713,16.648,14.261c.62-.271,1.265-.486,1.915-.732-.067-.116-.12-.211-.175-.3q-1.775-2.965-3.55-5.93Q12.658,3.648,10.48,0M29.17,26.023c.211.023.364.038.516.056a9.8,9.8,0,0,1,4.2,1.743c.664.435,1.285.934,1.95,1.366a1.519,1.519,0,0,0,2.179-.526,2.39,2.39,0,0,0-.444-3.311c-.081-.075-.162-.15-.248-.219a13.42,13.42,0,0,0-6.174-2.6c-.646-.122-1.3-.188-1.982-.284,0-.512,0-1.019,0-1.525a1.6,1.6,0,1,0-3.185-.014c0,.516,0,1.032,0,1.542-.074.024-.115.041-.158.05a1.5,1.5,0,0,1-.164.023,12.972,12.972,0,0,0-4.742,1.328c-2.959,1.527-4.722,3.815-4.541,7.3a6.007,6.007,0,0,0,1.165,3.486,7.454,7.454,0,0,0,2.779,2.085,28.173,28.173,0,0,0,5.35,1.764c.267.068.316.176.315.421q-.011,4.953,0,9.906v.4c-.5-.073-.948-.116-1.388-.209a12.786,12.786,0,0,1-5.943-3.084,3,3,0,0,0-.732-.5,1.4,1.4,0,0,0-1.982.789,6.811,6.811,0,0,0-.244.752,1.651,1.651,0,0,0,.253,1.508,7.1,7.1,0,0,0,.816.953,14.343,14.343,0,0,0,7.121,3.327c.686.137,1.387.2,2.1.3,0,.262,0,.514,0,.767a10.774,10.774,0,0,0,.03,1.455,1.582,1.582,0,0,0,1.662,1.311,1.6,1.6,0,0,0,1.492-1.607c0-.671,0-1.342,0-2.011.153-.03.271-.059.391-.077a14.021,14.021,0,0,0,6.448-2.546,7.729,7.729,0,0,0,3.522-6.205,6.551,6.551,0,0,0-1.938-5.1,8.611,8.611,0,0,0-3.063-1.98c-1.662-.6-3.361-1.111-5.051-1.637-.254-.079-.316-.176-.315-.426.009-2.805.005-5.61.005-8.415Z" transform="translate(0)" fill="#f5efe1"/>
        <path id="Path_20996" data-name="Path 20996" d="M58.448,78.5a13.412,13.412,0,0,1,4.3,1.936,3.95,3.95,0,0,1,.364,5.5,7.3,7.3,0,0,1-4.022,2.195c-.2.046-.412.069-.643.108Z" transform="translate(-29.254 -39.291)" fill="#f5efe1"/>
        <path id="Path_20997" data-name="Path 20997" d="M47,60.417c-.745-.255-1.479-.454-2.167-.757A11.276,11.276,0,0,1,43,58.634a2.368,2.368,0,0,1-.949-1.848,3.621,3.621,0,0,1,1.733-3.51,7.14,7.14,0,0,1,2.936-1.12,1.852,1.852,0,0,1,.281,0Z" transform="translate(-21.036 -26.101)" fill="#f5efe1"/>
      </g>
    </g>
  </g>
</svg>
