<svg xmlns="http://www.w3.org/2000/svg" xmlns:xlink="http://www.w3.org/1999/xlink" width="103.73" height="103.824" viewBox="0 0 103.73 103.824">
  <defs>
    <clipPath id="clip-path">
      <rect id="Rectangle_76157" data-name="Rectangle 76157" width="103.73" height="103.824" fill="#f5efe1"/>
    </clipPath>
  </defs>
  <g id="Group_28854" data-name="Group 28854" opacity="0.7">
    <g id="Group_28782" data-name="Group 28782" clip-path="url(#clip-path)">
      <path id="Path_20923" data-name="Path 20923" d="M81.1,77.245a37.487,37.487,0,0,1-7.718-4.519c-6.471-4.913-13.392-5.572-20.576-2.239-5.584,2.591-11.356,2.655-17.3,2.411V64.612c1.375,0,2.672-.056,3.963.011A21.993,21.993,0,0,0,49.53,62.746c7.862-3.395,15.826-3.8,23.695.069,1.6.787,3.054,1.875,4.584,2.81a66.239,66.239,0,0,0,6.507,3.9,16.638,16.638,0,0,0,16.782-.963,51.592,51.592,0,0,0,2.231-9.476c-7.261,3.665-14.979,3.5-23.058-.222a35.756,35.756,0,0,1-6.759-4.088c-6.366-4.883-13.239-5.628-20.367-2.343-5.652,2.605-11.481,2.781-17.55,2.478V46.63c1.419,0,2.784-.058,4.143.011a21.912,21.912,0,0,0,9.947-1.894c8.06-3.457,16.186-3.771,24.17.342A34.157,34.157,0,0,1,78.2,47.88c3.457,2.509,7.1,4.581,11.4,5.238a16.788,16.788,0,0,0,13.43-3.727c.231-.183.463-.372.7-.565a51.953,51.953,0,0,0-.962-7.38c-.148.066-.3.132-.445.2-8.114,3.451-15.967,2.482-23.577-1.559a35.45,35.45,0,0,1-5.157-3.289c-6.336-4.935-13.186-5.513-20.37-2.359a28.713,28.713,0,0,1-13.121,2.6c-1.433-.069-2.872-.011-4.344-.011V28.65c1.518,0,2.957-.057,4.389.011a20.659,20.659,0,0,0,9.438-1.8c7.776-3.4,15.668-3.9,23.5-.175a37.931,37.931,0,0,1,5.461,3.385c3.46,2.444,7.079,4.475,11.349,5.087a16.325,16.325,0,0,0,10.476-1.9,51.92,51.92,0,1,0-4.442,46.176,26.56,26.56,0,0,1-14.827-2.2" transform="translate(0 -0.001)" fill="#f5efe1"/>
    </g>
  </g>
</svg>
