<svg xmlns="http://www.w3.org/2000/svg" width="72" height="72" viewBox="0 0 72 72">
  <g id="Group_28964" data-name="Group 28964" transform="translate(-5868 -593)">
    <g id="Rectangle_75850" data-name="Rectangle 75850" transform="translate(5868 593)" fill="#f5efe1" stroke="#707070" stroke-width="1" opacity="0">
      <rect width="72" height="72" stroke="none"/>
      <rect x="0.5" y="0.5" width="71" height="71" fill="none"/>
    </g>
    <path id="Path_20992" data-name="Path 20992" d="M67.788,33.916A33.894,33.894,0,1,1,33.914,0,33.914,33.914,0,0,1,67.788,33.916M22.776,30.864c.487,2.373.918,4.468,1.346,6.564.458,2.247.876,4.5,1.4,6.734.094.4.641.689.979,1.029.321-.319.653-.628.954-.964.083-.093.07-.269.106-.406q1.96-7.635,3.921-15.27c.082-.319.18-.635.27-.953.819,3.554,1.454,7.088,2.173,10.606.1.5.608.91.928,1.361.391-.349.917-.625,1.148-1.059,1-1.876,1.915-3.8,2.953-5.886.117.378.175.536.215.7.924,3.769,1.825,7.545,2.8,11.3a1.846,1.846,0,0,0,.942,1.2c.743.214.948-.531,1.144-1.1q1.713-5.006,3.421-10.014c.828-2.422,1.66-4.843,2.6-7.569.826,2.865,1.576,5.415,2.29,7.975a1.34,1.34,0,0,0,1.5,1.149c2.261-.045,4.523-.024,6.784-.01.691,0,1.364-.066,1.378-.919s-.641-.979-1.342-.976c-1.908.009-3.817-.022-5.724.018a.943.943,0,0,1-1.1-.826c-.859-3.093-1.736-6.181-2.675-9.25-.141-.461-.639-.812-.972-1.215-.379.392-.944.718-1.11,1.185-1.579,4.455-3.09,8.934-4.622,13.406-.42,1.225-.845,2.448-1.356,3.924-.975-3.973-1.858-7.673-2.815-11.353-.129-.494-.631-.891-.961-1.333-.409.376-.956.678-1.2,1.139-.94,1.757-1.784,3.565-2.8,5.63-.308-1.6-.562-2.9-.806-4.2-.52-2.774-1.027-5.551-1.557-8.324-.191-1-.768-1.5-1.35-1.131a1.948,1.948,0,0,0-.693,1.1c-.94,3.547-1.838,7.105-2.749,10.66-.506,1.975-1.013,3.949-1.591,6.2-.152-.622-.244-.95-.312-1.283-.716-3.491-1.406-6.988-2.169-10.469a1.644,1.644,0,0,0-.9-1.068c-.247-.08-.847.408-1.04.773-1.151,2.184-2.227,4.407-3.334,6.614-.128.256-.289.5-.5.859a30.759,30.759,0,0,0-1.212-2.9,1.726,1.726,0,0,0-1.118-.893q-4.608-.112-9.22,0c-.364.009-.715.6-1.071.916a9.8,9.8,0,0,0,1.1.925c.176.113.483.022.73.022,2.4,0,4.806.02,7.208-.013a.929.929,0,0,1,1.08.708,22.57,22.57,0,0,0,1.139,2.848c.308.62.712,1.513,1.229,1.638.961.233,1.107-.886,1.442-1.532,1.033-1.992,2.011-4.012,3.129-6.261" transform="translate(5870.106 595.104)" fill="#f5efe1"/>
  </g>
</svg>
