<svg xmlns="http://www.w3.org/2000/svg" xmlns:xlink="http://www.w3.org/1999/xlink" width="72" height="72" viewBox="0 0 72 72">
  <defs>
    <clipPath id="clip-path">
      <rect id="Rectangle_76461" data-name="Rectangle 76461" width="62.73" height="58.786" fill="#f5efe1"/>
    </clipPath>
  </defs>
  <g id="Group_29013" data-name="Group 29013" transform="translate(-5868 -593)">
    <g id="Rectangle_75850" data-name="Rectangle 75850" transform="translate(5868 593)" fill="#f5efe1" stroke="#707070" stroke-width="1" opacity="0">
      <rect width="72" height="72" stroke="none"/>
      <rect x="0.5" y="0.5" width="71" height="71" fill="none"/>
    </g>
    <g id="Group_29051" data-name="Group 29051" transform="translate(5872.635 599.607)">
      <g id="Group_29051-2" data-name="Group 29051" clip-path="url(#clip-path)">
        <path id="Path_20993" data-name="Path 20993" d="M31.367,47.305H13.839c-2.959,0-5.918-.01-8.877.01a.866.866,0,0,1-.883-.52A31.043,31.043,0,0,1,1.885,20.735,30.683,30.683,0,0,1,7.331,11.3,31.013,31.013,0,0,1,32.712.036,30.689,30.689,0,0,1,54,9.642a30.323,30.323,0,0,1,8.351,16.923,31.569,31.569,0,0,1-3.189,19.418,2.109,2.109,0,0,1-2.229,1.367c-8.523-.07-17.046-.037-25.57-.037v-.007M4.91,29.646c.061-.32.133-.638.181-.96A23.377,23.377,0,0,1,15.791,11.9,22.186,22.186,0,0,1,32.542,8.6a21.265,21.265,0,0,1,10.169,4.916A21.506,21.506,0,0,1,49.3,23.4a22.231,22.231,0,0,1,.905,7.569A4,4,0,0,0,52.17,34.72a4.2,4.2,0,0,0,6.437-3.707A28.272,28.272,0,0,0,52.74,14.8,26.824,26.824,0,0,0,33.348,4.077,25.9,25.9,0,0,0,14.659,9.536,25.2,25.2,0,0,0,6.448,20.587,22.719,22.719,0,0,0,4.91,29.646M16.6,16.465l-.1.1c.085.138.162.283.258.414q1.657,2.266,3.319,4.528,2.722,3.7,5.45,7.387a2,2,0,0,1,.423,1.436,6.933,6.933,0,0,0,.322,3.257,5.561,5.561,0,0,0,10.544-3.34A5.561,5.561,0,0,0,30.5,25.883a1.816,1.816,0,0,1-1.528-.333c-3.062-2.281-6.145-4.532-9.223-6.791-1.047-.768-2.1-1.53-3.148-2.294" transform="translate(0 0)" fill="#f5efe1"/>
        <path id="Path_20994" data-name="Path 20994" d="M27.855,193.912h47.9c-.988.807-1.828,1.5-2.678,2.184-1.656,1.33-3.3,2.67-4.99,3.962a2.148,2.148,0,0,1-1.215.428c-5.375.01-10.751-.026-16.126-.033-4.754-.006-9.507.023-14.261,0a2.271,2.271,0,0,1-1.306-.436c-1.864-1.47-3.679-3-5.519-4.5-.614-.5-1.251-.971-1.878-1.456l.077-.148" transform="translate(-20.299 -141.703)" fill="#f5efe1"/>
      </g>
    </g>
  </g>
</svg>
