<svg id="Group_29034" data-name="Group 29034" xmlns="http://www.w3.org/2000/svg" xmlns:xlink="http://www.w3.org/1999/xlink" width="72" height="72" viewBox="0 0 72 72">
  <defs>
    <clipPath id="clip-path">
      <rect id="Rectangle_76157" data-name="Rectangle 76157" width="72" height="72" fill="#f5efe1"/>
    </clipPath>
    <clipPath id="clip-path-2">
      <rect id="Rectangle_76418" data-name="Rectangle 76418" width="66.718" height="68.072" fill="#f5efe1"/>
    </clipPath>
  </defs>
  <g id="Group_28782" data-name="Group 28782" clip-path="url(#clip-path)">
    <g id="Group_28908" data-name="Group 28908" transform="translate(2.641 1.964)">
      <g id="Group_28908-2" data-name="Group 28908" clip-path="url(#clip-path-2)">
        <path id="Path_20984" data-name="Path 20984" d="M34.422,68.072h-1.6a6.553,6.553,0,0,1-3.438-2.463,5.187,5.187,0,0,0-.505-.527,4,4,0,0,0-3.774-1.136c-1.022.246-1.985.725-2.992,1.046a4.331,4.331,0,0,1-5.511-2.616c-.3-.78-.485-1.609-.791-2.388a4.14,4.14,0,0,0-3.274-2.7,15.1,15.1,0,0,0-1.982-.144A4.544,4.544,0,0,1,6.12,53.983a6.458,6.458,0,0,1,.065-3.28A4.512,4.512,0,0,0,3.71,45.44c-.388-.211-.784-.411-1.166-.634A4.357,4.357,0,0,1,.42,39.327a10.876,10.876,0,0,1,1.331-2.2,4.522,4.522,0,0,0-.072-5.714c-.236-.322-.478-.638-.707-.964a4.437,4.437,0,0,1,1.423-6.723c.569-.341,1.169-.634,1.719-1a3.864,3.864,0,0,0,1.865-2.992,10.937,10.937,0,0,0-.231-2.685c-.487-2.583.627-4.784,2.971-5.485A15.578,15.578,0,0,1,11.6,11.2a4.258,4.258,0,0,0,3.8-2.864c.232-.594.365-1.226.542-1.841A4.471,4.471,0,0,1,22.089,3.4c.558.211,1.1.474,1.661.665A4.292,4.292,0,0,0,28.45,3c.582-.575,1.086-1.23,1.677-1.795a4.311,4.311,0,0,1,5.9-.076c.637.58,1.179,1.263,1.8,1.859A3.96,3.96,0,0,0,41.6,4.136a27.519,27.519,0,0,0,2.74-.96A4.391,4.391,0,0,1,50.235,6c.241.687.4,1.406.665,2.082a4.144,4.144,0,0,0,3.269,2.7,15.026,15.026,0,0,0,1.982.145A4.548,4.548,0,0,1,60.6,14.09a6.449,6.449,0,0,1-.065,3.28A4.522,4.522,0,0,0,63,22.637c.388.211.783.412,1.166.634A4.35,4.35,0,0,1,66.3,28.747a11.4,11.4,0,0,1-1.367,2.26A4.507,4.507,0,0,0,65,36.612c.246.341.505.673.747,1.017a4.441,4.441,0,0,1-1.47,6.758c-.553.325-1.13.612-1.662.968a3.866,3.866,0,0,0-1.87,2.989,10.869,10.869,0,0,0,.227,2.685c.489,2.588-.616,4.783-2.963,5.489a15.2,15.2,0,0,1-2.885.364,4.255,4.255,0,0,0-3.8,2.858c-.241.614-.37,1.271-.558,1.906a4.326,4.326,0,0,1-4.71,3.335,9.559,9.559,0,0,1-2.576-.784,4.453,4.453,0,0,0-5.606,1.315,7.164,7.164,0,0,1-3.444,2.56M31.128,28.258a6.841,6.841,0,1,0-6.829,6.85,6.867,6.867,0,0,0,6.829-6.85m4.418,11.564a6.838,6.838,0,1,0,13.677-.032,6.838,6.838,0,1,0-13.677.032M22.6,44.716a1.924,1.924,0,0,0,1.046,1.68,1.772,1.772,0,0,0,2.157-.676l13.454-16.2q2.164-2.606,4.323-5.217a1.64,1.64,0,0,0,.222-1.861,1.524,1.524,0,0,0-1.386-.881,1.922,1.922,0,0,0-1.615.877q-3.763,4.56-7.548,9.1-4.986,6-9.966,12.013a8.47,8.47,0,0,0-.688,1.16" transform="translate(0 0)" fill="#f5efe1"/>
        <path id="Path_20985" data-name="Path 20985" d="M51.953,58.151a2.849,2.849,0,1,1-2.842,2.83,2.858,2.858,0,0,1,2.842-2.83" transform="translate(-27.653 -32.743)" fill="#f5efe1"/>
        <path id="Path_20986" data-name="Path 20986" d="M93.377,84.606a2.831,2.831,0,0,1,2.8,2.846A2.868,2.868,0,0,1,93.3,90.3a2.9,2.9,0,0,1-2.818-2.866,2.858,2.858,0,0,1,2.9-2.831" transform="translate(-50.946 -47.639)" fill="#f5efe1"/>
      </g>
    </g>
  </g>
</svg>
