<svg xmlns="http://www.w3.org/2000/svg" width="72" height="72" viewBox="0 0 72 72">
  <g id="Group_29017" data-name="Group 29017" transform="translate(-5868 -593)">
    <g id="Rectangle_75850" data-name="Rectangle 75850" transform="translate(5868 593)" fill="#f5efe1" stroke="#707070" stroke-width="1" opacity="0">
      <rect width="72" height="72" stroke="none"/>
      <rect x="0.5" y="0.5" width="71" height="71" fill="none"/>
    </g>
    <path id="Icon_ionic-md-settings" data-name="Icon ionic-md-settings" d="M58.032,37.546a19.426,19.426,0,0,0,.158-3.106c0-1.088-.158-2.019-.158-3.106L64.7,26.208a1.427,1.427,0,0,0,.318-2.019L58.666,13.471a1.547,1.547,0,0,0-1.907-.622l-7.943,3.107a23.122,23.122,0,0,0-5.4-3.107L42.3,4.617a1.7,1.7,0,0,0-1.589-1.242H28.005a1.7,1.7,0,0,0-1.589,1.242l-1.271,8.232a26.9,26.9,0,0,0-5.4,3.107L11.8,12.849a1.488,1.488,0,0,0-1.907.622L3.539,24.189a1.876,1.876,0,0,0,.318,2.019l6.831,5.125c0,1.088-.158,2.019-.158,3.106s.158,2.019.158,3.106L4.018,42.671A1.427,1.427,0,0,0,3.7,44.69l6.355,10.718a1.547,1.547,0,0,0,1.907.622L19.9,52.923a23.12,23.12,0,0,0,5.4,3.107l1.271,8.232A1.54,1.54,0,0,0,28.164,65.5H40.873a1.7,1.7,0,0,0,1.589-1.242l1.272-8.232a26.886,26.886,0,0,0,5.4-3.107l7.943,3.107a1.488,1.488,0,0,0,1.907-.622L65.34,44.69a1.873,1.873,0,0,0-.318-2.019ZM34.36,45.312a10.875,10.875,0,1,1,0-21.745,10.875,10.875,0,1,1,0,21.745Z" transform="translate(5869.56 594.56)" fill="#f5efe1"/>
  </g>
</svg>
