<svg id="Group_29020" data-name="Group 29020" xmlns="http://www.w3.org/2000/svg" xmlns:xlink="http://www.w3.org/1999/xlink" width="72" height="72" viewBox="0 0 72 72">
  <defs>
    <clipPath id="clip-path">
      <rect id="Rectangle_76157" data-name="Rectangle 76157" width="72" height="72" fill="#f5efe1"/>
    </clipPath>
    <clipPath id="clip-path-2">
      <rect id="Rectangle_76464" data-name="Rectangle 76464" width="56.665" height="63.677" fill="#f5efe1"/>
    </clipPath>
  </defs>
  <g id="Group_28782" data-name="Group 28782" clip-path="url(#clip-path)">
    <g id="Group_29054" data-name="Group 29054" transform="translate(6.5 3.062)">
      <g id="Group_29054-2" data-name="Group 29054" clip-path="url(#clip-path-2)">
        <path id="Path_20999" data-name="Path 20999" d="M40.4,7.685c-1.269-1.24-2.614-2.548-3.953-3.862-.651-.639-1.282-1.3-1.939-1.932-.39-.375-.713-.842-.377-1.3A1.64,1.64,0,0,1,35.294.029C40.742-.008,46.191,0,51.64,0c1.3,0,2.6-.009,3.9.006.864.01,1.2.351,1.2,1.211,0,6.747.009,13.495-.024,20.242,0,.4-.268,1.04-.547,1.125a1.569,1.569,0,0,1-1.281-.385c-1.723-1.639-3.39-3.336-5.061-5.028a7.953,7.953,0,0,1-.689-.93l-.414-.062a4.268,4.268,0,0,1-.522.85Q41.263,24,34.3,30.943c-2.755,2.754-6.272,2.761-9.019.01-1.091-1.092-2.162-2.2-3.427-3.5a7.264,7.264,0,0,1-.646.921Q13.373,36.321,5.521,44.25c-.371.375-.716.8-1.345.544s-.656-.812-.655-1.383c0-4.452-.018-8.9.03-13.356a2.4,2.4,0,0,1,.623-1.516q6.673-6.761,13.419-13.45a5.946,5.946,0,0,1,8.79.06c1.108,1.116,2.215,2.235,3.256,3.286L40.4,7.685" transform="translate(-2.934 0)" fill="#f5efe1"/>
        <path id="Path_21000" data-name="Path 21000" d="M267.083,166.612q0-9.126,0-18.252c0-1.137.289-1.433,1.408-1.435q4.73-.008,9.46,0c1.116,0,1.382.259,1.382,1.353q.007,16.054.007,32.107,0,2.2-.006,4.4c-.005,1.131-.245,1.379-1.346,1.38q-4.771.005-9.543,0c-1.082,0-1.362-.286-1.363-1.38q0-9.085,0-18.17" transform="translate(-222.676 -122.493)" fill="#f5efe1"/>
        <path id="Path_21001" data-name="Path 21001" d="M178.4,241.038q0-5.765,0-11.53c0-1.073.239-1.321,1.317-1.324q4.812-.012,9.623,0c1.076,0,1.3.244,1.3,1.334q0,11.488,0,22.976c0,1.169-.244,1.414-1.4,1.415q-4.77.006-9.541,0c-1.037,0-1.3-.276-1.3-1.341q0-5.765,0-11.53" transform="translate(-148.735 -190.24)" fill="#f5efe1"/>
        <path id="Path_21002" data-name="Path 21002" d="M89.821,269.609q0-4.437,0-8.874c0-1.2.2-1.4,1.4-1.406q4.811-.006,9.623.005c.935,0,1.225.292,1.226,1.246q.009,9,0,18c0,.972-.32,1.3-1.288,1.3q-4.894.011-9.789,0c-.864,0-1.167-.324-1.17-1.227-.008-3.013,0-6.027,0-9.04Z" transform="translate(-74.886 -216.21)" fill="#f5efe1"/>
        <path id="Path_21003" data-name="Path 21003" d="M0,313.419q0-2.486,0-4.973c0-1.039.242-1.291,1.255-1.293q4.808-.007,9.616,0c1.1,0,1.387.271,1.39,1.353q.012,5.014,0,10.029c0,.874-.337,1.217-1.19,1.219q-4.933.011-9.865,0c-.895,0-1.19-.295-1.2-1.194-.017-1.713,0-3.426,0-5.139H0" transform="translate(0 -256.08)" fill="#f5efe1"/>
      </g>
    </g>
  </g>
</svg>
