<svg xmlns="http://www.w3.org/2000/svg" xmlns:xlink="http://www.w3.org/1999/xlink" width="72" height="72" viewBox="0 0 72 72">
  <defs>
    <clipPath id="clip-path">
      <rect id="Rectangle_76157" data-name="Rectangle 76157" width="72" height="72" fill="#f5efe1"/>
    </clipPath>
    <clipPath id="clip-path-2">
      <rect id="Rectangle_76466" data-name="Rectangle 76466" width="63.367" height="63.377" fill="#f4eee0"/>
    </clipPath>
  </defs>
  <g id="Group_29037" data-name="Group 29037" opacity="0.998">
    <g id="Group_28782" data-name="Group 28782" clip-path="url(#clip-path)">
      <g id="Group_29056" data-name="Group 29056" transform="translate(4.316 4.312)">
        <g id="Group_29056-2" data-name="Group 29056" clip-path="url(#clip-path-2)">
          <path id="Path_21006" data-name="Path 21006" d="M63.344,19.4A19.07,19.07,0,0,0,52.78,2.051,18.807,18.807,0,0,0,45.215.1Q43.863.032,42.508.031C34.672.026,26.834-.048,19,.053A18.671,18.671,0,0,0,4.7,6.591a18.713,18.713,0,0,0-4.05,7.588,8.371,8.371,0,0,0-.4,2.667,1.632,1.632,0,0,1-.121.67L0,16.639v30.2q.084-.562.168-1.125A17.58,17.58,0,0,0,5.614,57.791a18,18,0,0,0,12.109,5.47l-1.109.115H46.18l-.749-.15c0-.032,0-.064,0-.1a13.5,13.5,0,0,0,1.619-.01,16.651,16.651,0,0,0,5.424-1.628A18.755,18.755,0,0,0,62.8,48.695a20.255,20.255,0,0,0,.554-4.877c.011-8.14.033-16.281-.008-24.421m-34.76-.713a3.054,3.054,0,0,1,2.8-2.74c1.792-.063,3.587-.044,5.381-.055.95-.006,1.9,0,2.849,0,2.357,0,4.714,0,7.071,0a9.513,9.513,0,0,1,1.3.067,3.109,3.109,0,0,1-.1,6.167,7.383,7.383,0,0,1-.877.048q-7.3,0-14.6,0a7.456,7.456,0,0,1-1.468-.115,3.077,3.077,0,0,1-2.353-3.369M50.649,31.679A3.116,3.116,0,0,1,47.9,34.793a5.884,5.884,0,0,1-.7.049c-3.025,0-6.051-.013-9.076.007a3.239,3.239,0,0,1-3.133-2.357,3.151,3.151,0,0,1,3.081-3.93c1.595-.02,3.19,0,4.784,0,0,.016,0,.031,0,.046,1.629,0,3.26-.025,4.888.008a3.065,3.065,0,0,1,2.9,3.068m-34.4,7.441c-1.53-1.452-3-2.968-4.481-4.472a2.879,2.879,0,0,1-.857-2.133,3.041,3.041,0,0,1,1.679-2.763,2.9,2.9,0,0,1,3.3.288,23.982,23.982,0,0,1,2.041,1.981c.621.625.549.483,1.022.009q3.059-3.061,6.114-6.124a3.549,3.549,0,0,1,1.956-1.028,3.14,3.14,0,0,1,2.5,5.431q-4.348,4.359-8.707,8.705a3.068,3.068,0,0,1-4.571.107m31.618,8.347c-.291.029-.585.046-.877.046q-7.281,0-14.562,0a4.458,4.458,0,0,1-2.255-.4,3.159,3.159,0,0,1-1.519-3.481,3.047,3.047,0,0,1,2.78-2.348c2.027-.055,4.056-.04,6.084-.052.7,0,1.407,0,2.11,0q3.517,0,7.035,0a10.1,10.1,0,0,1,1.3.064,3.107,3.107,0,0,1-.095,6.173" transform="translate(0 0)" fill="#f4eee0"/>
        </g>
      </g>
    </g>
  </g>
</svg>
