<svg xmlns="http://www.w3.org/2000/svg" width="62.349" height="69.277" viewBox="0 0 62.349 69.277">
  <path id="assignment_FILL0_wght400_GRAD0_opsz48" d="M11.2,71.277a5.174,5.174,0,0,1-5.2-5.2V14.123a5.174,5.174,0,0,1,5.2-5.2H28.948a7.684,7.684,0,0,1,2.771-4.979,8.612,8.612,0,0,1,10.911,0A7.684,7.684,0,0,1,45.4,8.928H63.153a5.174,5.174,0,0,1,5.2,5.2V66.081a5.174,5.174,0,0,1-5.2,5.2Zm0-5.2H63.153V14.123H11.2Zm8.66-8.66H43.5v-5.2H19.855Zm0-14.721H54.494V37.5H19.855Zm0-14.721H54.494v-5.2H19.855ZM37.175,12.651a2.908,2.908,0,0,0,2.122-.909,2.93,2.93,0,0,0,0-4.243,2.93,2.93,0,0,0-4.243,0,2.93,2.93,0,0,0,0,4.243A2.908,2.908,0,0,0,37.175,12.651ZM11.2,66.081v0Z" transform="translate(-6 -2)" fill="#fff" opacity="0.646"/>
</svg>
