<svg id="Group_28958" data-name="Group 28958" xmlns="http://www.w3.org/2000/svg" xmlns:xlink="http://www.w3.org/1999/xlink" width="72" height="72" viewBox="0 0 72 72">
  <defs>
    <clipPath id="clip-path">
      <rect id="Rectangle_76157" data-name="Rectangle 76157" width="72" height="72" fill="#f5efe1"/>
    </clipPath>
  </defs>
  <g id="Group_28782" data-name="Group 28782" clip-path="url(#clip-path)">
    <g id="Group_28877" data-name="Group 28877" transform="translate(11.845 3.881)">
      <g id="Group_28846" data-name="Group 28846">
        <path id="Path_20967" data-name="Path 20967" d="M48.478,79.367c-.286,1.137-.493,2.223-.718,3.306-.253,1.222-.482,2.449-.767,3.663-.308,1.308-.53,2.634-.846,3.941-.248,1.024-.415,2.067-.648,3.095-.215.951-.411,1.907-.608,2.861-.228,1.106-.469,2.212-.7,3.317-.186.884-.339,1.776-.576,2.653a13.932,13.932,0,0,0-.328,1.737c-.068.494-.238.966-.329,1.457-.177.954-.369,1.906-.6,2.848-.2.83-.377,1.668-.547,2.5-.222,1.094-.45,2.188-.664,3.284-.126.649-.3,1.289-.426,1.939-.213,1.13-.477,2.249-.7,3.377-.2,1.008-.417,2.016-.64,3.021q-.266,1.2-.5,2.4c-.042.218-.123.3-.356.3q-14.158-.009-28.317-.006c-.392,0-.374-.005-.442-.426-.1-.614-.21-1.227-.353-1.831-.224-.943-.383-1.9-.624-2.839-.187-.73-.291-1.475-.494-2.2-.149-.538-.194-1.109-.323-1.659-.228-.978-.421-1.966-.617-2.95-.219-1.1-.461-2.193-.718-3.283-.283-1.2-.467-2.418-.736-3.621-.232-1.037-.512-2.066-.689-3.113-.194-1.148-.5-2.27-.714-3.412-.172-.915-.413-1.818-.564-2.737-.117-.712-.295-1.41-.44-2.115-.173-.835-.32-1.677-.536-2.5-.265-1.011-.37-2.052-.653-3.059-.177-.631-.228-1.3-.386-1.935-.216-.874-.344-1.766-.609-2.632a5.688,5.688,0,0,1-.258-1.433,10.043,10.043,0,0,0-.221-1.071c-.132-.9-.452-1.765-.577-2.669-.028-.2.044-.241.233-.241q10.194.006,20.388,0h3.166c1.173,0,2.348-.026,3.52.007,1.242.035,2.482-.031,3.724-.011,1.27.02,2.541,0,3.811,0H45.7c.72,0,1.44.01,2.16,0,.2,0,.369.12.614.031m-24.52,34.075c8.538-.038,15.33-6.471,15.2-15.091a14.356,14.356,0,0,0-5.315-11.161A14.489,14.489,0,0,0,23.609,83.8,14.815,14.815,0,0,0,9.5,98.653a14.331,14.331,0,0,0,4.639,10.717,14.393,14.393,0,0,0,9.821,4.073" transform="translate(-0.191 -60.828)" fill="#f5efe1"/>
        <path id="Path_20968" data-name="Path 20968" d="M24.116,41.1H13.575l-10.134,0c-1.036,0-2.072-.011-3.107,0C.073,41.1,0,41.022,0,40.748c.014-1.655.007-3.311,0-4.966A7.481,7.481,0,0,1,.295,33.21a3.552,3.552,0,0,1,.559-1.054,4.744,4.744,0,0,1,1.1-1.092,4.275,4.275,0,0,1,1.675-.652,15.962,15.962,0,0,1,2.187-.123q11.051.008,22.1,0,7.6,0,15.193,0a5.713,5.713,0,0,1,2.786.53,4.3,4.3,0,0,1,2.1,2.458,8.31,8.31,0,0,1,.307,2.68c.02,1.326,0,2.652,0,3.979,0,.309-.027.618-.028.927,0,.165-.074.224-.227.225-.407,0-.813.01-1.22.01q-6.156-.01-12.313-.022-5.2-.006-10.4,0V41.1" transform="translate(0 -23.227)" fill="#f5efe1"/>
        <path id="Path_20969" data-name="Path 20969" d="M79.178,6.338q-.914,0-1.828,0a.338.338,0,0,1-.38-.293,1.792,1.792,0,0,0-.852-.954,6.407,6.407,0,0,0-2.757-.873,10.588,10.588,0,0,0-1.906-.054,6.11,6.11,0,0,0-3,.855,2.333,2.333,0,0,0-1.036,1.234.261.261,0,0,1-.287.182q-1.815-.006-3.629-.007c-.214,0-.284-.089-.273-.3a3.517,3.517,0,0,1,.192-.9,6.05,6.05,0,0,1,2.139-3.11,12.559,12.559,0,0,1,1.632-1.025A8.318,8.318,0,0,1,68.72.517,13.985,13.985,0,0,1,71.435.023a13.243,13.243,0,0,1,1.692.025,10.109,10.109,0,0,1,1.22.161c.322.05.641.118.963.172a2.988,2.988,0,0,1,.943.337c.214.117.452.135.672.233a7.939,7.939,0,0,1,3.328,2.607A5.381,5.381,0,0,1,81.2,6.026c.032.235-.045.291-.248.29-.59,0-1.179,0-1.769,0,0,.008,0,.015,0,.023" transform="translate(-48.486 0)" fill="#f5efe1"/>
        <path id="Subtraction_6" data-name="Subtraction 6" d="M14.46,29.656h0a14.144,14.144,0,0,1-5.234-1.069,15.1,15.1,0,0,1-4.587-3,14.741,14.741,0,0,1-3.46-4.863A15.105,15.105,0,0,1,1.128,9.142,14.932,14.932,0,0,1,8.692,1.3,14.137,14.137,0,0,1,14.109.011C14.325,0,14.541,0,14.754,0a15.474,15.474,0,0,1,5.1.822,13.819,13.819,0,0,1,2.324,1.06A14.668,14.668,0,0,1,24.341,3.4a14.354,14.354,0,0,1,5.315,11.161,14.99,14.99,0,0,1-1.06,5.847,14.3,14.3,0,0,1-3.075,4.7,14.733,14.733,0,0,1-2.278,1.895A15.179,15.179,0,0,1,20.6,28.435,16.064,16.064,0,0,1,14.46,29.656Zm3.523-18.379L20.7,15.334v2.82H22.5V15.344l2.712-4.067h-2l-1.585,2.491L20.05,11.277H17.982Zm-5.814,0v6.877h1.8V15.588h.517a1.377,1.377,0,0,1,.468.078.534.534,0,0,1,.312.3l1.112,2.185h1.98l-1.034-1.96a1.856,1.856,0,0,0-.556-.653,1.261,1.261,0,0,0-.254-.139,2.339,2.339,0,0,0,.249-.1,1.878,1.878,0,0,0,.839-.741,2.208,2.208,0,0,0,.287-1.146,1.992,1.992,0,0,0-.644-1.566,2.688,2.688,0,0,0-1.834-.571Zm-7.618,0h0v6.877H7.311a4.66,4.66,0,0,0,2.068-.414,2.9,2.9,0,0,0,1.273-1.185,3.714,3.714,0,0,0,.434-1.843,3.689,3.689,0,0,0-.434-1.839,2.907,2.907,0,0,0-1.273-1.18,4.659,4.659,0,0,0-2.068-.415ZM7.214,16.69H6.355V12.73h.858a2.209,2.209,0,0,1,1.566.488,1.982,1.982,0,0,1,.512,1.493A1.979,1.979,0,0,1,8.779,16.2,2.207,2.207,0,0,1,7.214,16.69ZM15.1,14.31H13.973V12.652H15.1a1.3,1.3,0,0,1,.795.2.861.861,0,0,1,0,1.248A1.3,1.3,0,0,1,15.1,14.31Z" transform="translate(9.308 22.959)" fill="#f5efe1" stroke="rgba(0,0,0,0)" stroke-width="1"/>
      </g>
    </g>
  </g>
</svg>
