<svg id="Group_28957" data-name="Group 28957" xmlns="http://www.w3.org/2000/svg" xmlns:xlink="http://www.w3.org/1999/xlink" width="72" height="72" viewBox="0 0 72 72">
  <defs>
    <clipPath id="clip-path">
      <rect id="Rectangle_76157" data-name="Rectangle 76157" width="72" height="72" fill="#f5efe1"/>
    </clipPath>
    <clipPath id="clip-path-2">
      <rect id="Rectangle_76188" data-name="Rectangle 76188" width="52.82" height="70.32" fill="#f5efe1"/>
    </clipPath>
  </defs>
  <g id="Group_28782" data-name="Group 28782" clip-path="url(#clip-path)">
    <g id="Group_28788" data-name="Group 28788" transform="translate(11.146 1.68)">
      <g id="Group_28788-2" data-name="Group 28788" clip-path="url(#clip-path-2)">
        <path id="Path_20926" data-name="Path 20926" d="M26.7,0a1.253,1.253,0,0,0,.278.122,2.067,2.067,0,0,1,1.39,1.024c1.137,1.744,2.225,3.524,3.43,5.22,1.626,2.288,3.327,4.523,5.026,6.757,1.5,1.969,3.047,3.9,4.556,5.86,1.846,2.4,3.633,4.844,5.293,7.377a46,46,0,0,1,3.476,6.237A30.759,30.759,0,0,1,52.2,38.527a24.259,24.259,0,0,1,.593,6.541c-.051,1.037-.193,2.072-.343,3.1a24.211,24.211,0,0,1-1.694,5.962,27,27,0,0,1-3.447,5.9,25.525,25.525,0,0,1-5.889,5.593,26.445,26.445,0,0,1-6.173,3.153,25.225,25.225,0,0,1-5.615,1.309,27.59,27.59,0,0,1-3.358.231,27.161,27.161,0,0,1-6.517-.871A25.823,25.823,0,0,1,16.4,68.336a25.253,25.253,0,0,1-3.422-1.708,25.565,25.565,0,0,1-3.061-2.133c-.947-.78-1.828-1.641-2.706-2.5A22.347,22.347,0,0,1,4.59,58.754,24.239,24.239,0,0,1,2.585,55.27a27.918,27.918,0,0,1-1.521-3.979A26.083,26.083,0,0,1,.08,45.978a23.892,23.892,0,0,1,.13-5.09,27.111,27.111,0,0,1,1.644-6.354,41.21,41.21,0,0,1,3.32-6.616,89.715,89.715,0,0,1,5.343-7.7c2.334-3.041,4.711-6.049,7.026-9.1,1.553-2.049,3.056-4.136,4.534-6.24.808-1.15,1.519-2.369,2.271-3.558A2.428,2.428,0,0,1,25.5.209c.15-.056.315-.072.471-.116C26,.088,26,.032,26.019,0Zm10.77,30.758a4.472,4.472,0,0,0-.485.049,2.907,2.907,0,0,0-1.448.9q-9.7,9.7-19.4,19.4-1.268,1.269-2.5,2.576A1.846,1.846,0,0,0,13.2,55.2a2.212,2.212,0,0,0,2.5,1.925,2.7,2.7,0,0,0,1.572-.906q9.827-9.83,19.66-19.653c.708-.708,1.439-1.4,2.116-2.132a2.1,2.1,0,0,0,.388-2.426,2.029,2.029,0,0,0-1.962-1.251m-17.7-4.392a6.579,6.579,0,1,0,6.629,6.392,6.579,6.579,0,0,0-6.629-6.392m19.841,28.6a6.6,6.6,0,1,0-6.558,6.557,6.576,6.576,0,0,0,6.558-6.557" transform="translate(0 0.001)" fill="#f5efe1"/>
        <path id="Path_20927" data-name="Path 20927" d="M80.136,134.552a2.191,2.191,0,0,1-2.245,2.2,2.264,2.264,0,0,1-2.148-2.207,2.2,2.2,0,0,1,4.393.007" transform="translate(-58.133 -101.617)" fill="#f5efe1"/>
        <path id="Path_20928" data-name="Path 20928" d="M134.869,231.516a2.289,2.289,0,0,1-2.288-2.252,2.153,2.153,0,0,1,2.165-2.137,2.2,2.2,0,0,1,2.22,2.221,2.234,2.234,0,0,1-2.1,2.168" transform="translate(-101.756 -174.367)" fill="#f5efe1"/>
      </g>
    </g>
  </g>
</svg>
